<?xml version="1.0" encoding="utf-8"?>
<!-- Generator: Adobe Illustrator 20.1.0, SVG Export Plug-In . SVG Version: 6.00 Build 0)  -->
<svg version="1.1" id="Capa_1" xmlns="http://www.w3.org/2000/svg" xmlns:xlink="http://www.w3.org/1999/xlink" x="0px" y="0px"
	 viewBox="0 0 30 30" style="enable-background:new 0 0 30 30;" xml:space="preserve">
<style type="text/css">
	.st0{fill:none;stroke:#000000;stroke-width:9;stroke-miterlimit:10;}
</style>
<g>
	<path d="M29,29.7H0.9c-0.2,0-0.4-0.1-0.5-0.2c-0.1-0.2-0.2-0.4-0.1-0.5l4.9-14.7c0.1-0.2,0.3-0.4,0.5-0.4h5.5
		c0.4,0,0.6,0.2,0.6,0.6s-0.2,0.6-0.6,0.6H6.3L1.8,28.4h26.4l-3.7-13.5h-5.9c-0.4,0-0.6-0.2-0.6-0.6s0.2-0.6,0.6-0.6h6.3
		c0.2,0,0.5,0.2,0.6,0.4l4.1,14.7c0.1,0.2,0,0.4-0.1,0.5C29.4,29.6,29.2,29.7,29,29.7"/>
	<path d="M15,20.3c-0.2,0-0.4-0.1-0.5-0.2C14.3,19.7,8,11.5,8,7.7c0-4,3.1-7.3,7-7.3s7,3.3,7,7.3c0,3.8-6.2,12-6.5,12.4
		C15.4,20.3,15.2,20.3,15,20.3 M15,1.6c-3.2,0-5.7,2.7-5.7,6.1c0,2.6,3.8,8.3,5.7,11c2-2.7,5.7-8.4,5.7-11C20.7,4.2,18.2,1.6,15,1.6
		"/>
	<path d="M15,11.5c-2,0-3.7-1.7-3.7-3.8S13,3.8,15,3.8s3.7,1.7,3.7,3.8S17,11.5,15,11.5 M15,5c-1.3,0-2.4,1.2-2.4,2.6
		c0,1.5,1.1,2.6,2.4,2.6s2.4-1.2,2.4-2.6C17.4,6.2,16.3,5,15,5"/>
</g>
</svg>
