<?xml version="1.0" encoding="utf-8"?>
<!-- Generator: Adobe Illustrator 20.1.0, SVG Export Plug-In . SVG Version: 6.00 Build 0)  -->
<svg version="1.1" id="Capa_1" xmlns="http://www.w3.org/2000/svg" xmlns:xlink="http://www.w3.org/1999/xlink" x="0px" y="0px"
	 viewBox="0 0 30 18.4" style="enable-background:new 0 0 30 18.4;" xml:space="preserve">
<g>
	<path d="M0.9,0.2c-0.4,0-0.7,0.3-0.7,0.7v16.7c0,0.4,0.3,0.7,0.7,0.7H29c0.4,0,0.7-0.3,0.7-0.7V0.8c0-0.4-0.3-0.7-0.7-0.7H0.9z
		 M1.5,0.8h27L15,12.1L1.5,0.8z M0.9,1.3l9.2,7.6l-9.2,8.2V1.3z M29,1.3v15.8l-9.2-8.2L29,1.3z M10.6,9.3l4.2,3.5
		c0.1,0.1,0.3,0.1,0.4,0l4.2-3.5l9.2,8.2H1.4L10.6,9.3z"/>
</g>
</svg>
