<?xml version="1.0" encoding="utf-8"?>
<!-- Generator: Adobe Illustrator 20.1.0, SVG Export Plug-In . SVG Version: 6.00 Build 0)  -->
<svg version="1.1" id="Capa_1" xmlns="http://www.w3.org/2000/svg" xmlns:xlink="http://www.w3.org/1999/xlink" x="0px" y="0px"
	 viewBox="0 0 30 30" style="enable-background:new 0 0 30 30;" xml:space="preserve">
<style type="text/css">
	.st0{fill:none;stroke:#000000;stroke-width:9;stroke-miterlimit:10;}
</style>
<g>
	<path d="M22.4,29.8c-0.8,0-1.6-0.1-2.5-0.4c-0.2-0.1-3.5-1-7.5-3.6c-2.4-1.6-4.5-3.4-6.2-5.5c-2.2-2.6-3.9-5.6-5.1-8.9
		c-0.1-0.2-1.4-3.5-0.5-6.1l0,0c0-0.1,1-2.6,2.1-3.7c0.1-0.1,0.3-0.5,0.9-0.8c0.9-0.5,2.1-0.7,3.6-0.7l0.2,0l3.9,6.4
		c0.3,0.4,0.5,1.2-0.3,1.9l0,0l-3,2.6c-0.1,0.1-0.4,0.5,0,1.1l0,0c0,0,0.7,1.7,2.3,3.7c1.5,1.9,4.1,4.5,8,6.3l0,0
		c0,0,0.3,0.1,0.8-0.3l2.1-2.6c0.3-0.5,1.2-1.2,2.4-0.6l0,0l6,3.5c0.2,0.1,0.7,0.4,0.4,2c0,0.2-0.3,2.5-1.9,3.5
		c-0.1,0.1-0.9,0.8-2.3,1.3C24.8,29.5,23.7,29.8,22.4,29.8z M1,5.5C0.6,6.8,0.8,8.2,1,9.2c0.2,1.1,0.6,1.9,0.6,1.9l0,0
		c1.1,3.2,2.8,6.2,5,8.7c1.7,2.1,3.8,3.9,6.1,5.4c4,2.6,7.3,3.5,7.4,3.5l0,0c1.8,0.6,3.5,0.5,5.3-0.2c1.3-0.5,2.1-1.2,2.1-1.2l0,0
		c1.4-0.9,1.7-3.1,1.7-3.1l0,0c0.2-1,0-1.3-0.1-1.3l0,0l0,0l-6-3.5c-1-0.5-1.6,0.4-1.6,0.4l0,0l-2.1,2.6l0,0
		c-0.7,0.6-1.2,0.5-1.5,0.4c-4.1-1.9-6.7-4.6-8.2-6.5c-1.6-2-2.3-3.6-2.3-3.8c-0.6-1,0.1-1.8,0.1-1.8l0,0l3-2.6
		C11,7.5,10.6,7,10.6,7l0,0L6.9,0.8c-1.6,0-2.5,0.3-3.1,0.6C3.2,1.7,3,2,3,2l0,0l0,0C2,3,1.1,5.4,1,5.5z"/>
</g>
</svg>
