<?xml version="1.0" encoding="utf-8"?>
<!-- Generator: Adobe Illustrator 16.0.0, SVG Export Plug-In . SVG Version: 6.00 Build 0)  -->
<!DOCTYPE svg PUBLIC "-//W3C//DTD SVG 1.1//EN" "http://www.w3.org/Graphics/SVG/1.1/DTD/svg11.dtd">
<svg version="1.1" id="Capa_1" xmlns="http://www.w3.org/2000/svg" xmlns:xlink="http://www.w3.org/1999/xlink" x="0px" y="0px"
	 width="348.095px" height="46.536px" viewBox="0 0 348.095 46.536" enable-background="new 0 0 348.095 46.536"
	 xml:space="preserve">
<g>
	<path fill="#FFFFFF" d="M2.557,7.13c0-3.565,0-4.222-0.047-4.972C2.463,1.36,2.275,0.985,1.501,0.821
		C1.313,0.774,0.915,0.75,0.586,0.75c-0.258,0-0.398-0.047-0.398-0.211s0.164-0.211,0.517-0.211c1.242,0,2.72,0.071,3.377,0.071
		c0.961,0,2.321-0.071,3.4-0.071c2.932,0,3.987,0.985,4.362,1.337c0.516,0.493,1.173,1.548,1.173,2.791
		c0,3.33-2.439,5.676-5.77,5.676c-0.117,0-0.375,0-0.492-0.023c-0.117-0.024-0.282-0.047-0.282-0.211
		c0-0.188,0.165-0.258,0.657-0.258c1.313,0,3.143-1.478,3.143-3.87c0-0.774-0.07-2.345-1.384-3.518
		C8.044,1.478,7.083,1.337,6.543,1.337c-0.352,0-0.703,0.023-0.914,0.094C5.512,1.478,5.441,1.618,5.441,1.876v9.381
		c0,2.158,0,4.01,0.117,5.019c0.07,0.657,0.211,1.172,0.914,1.266c0.329,0.047,0.845,0.094,1.196,0.094
		c0.258,0,0.375,0.07,0.375,0.188c0,0.164-0.188,0.234-0.445,0.234c-1.548,0-3.025-0.07-3.635-0.07c-0.54,0-2.018,0.07-2.955,0.07
		c-0.305,0-0.47-0.07-0.47-0.234c0-0.117,0.095-0.188,0.376-0.188c0.352,0,0.633-0.047,0.844-0.094
		c0.47-0.094,0.587-0.609,0.681-1.29c0.117-0.985,0.117-2.838,0.117-4.996V7.13z"/>
	<path fill="#FFFFFF" d="M15.364,9.193c0-4.01,2.65-9.193,9.687-9.193c5.839,0,9.475,3.401,9.475,8.771s-3.753,9.616-9.71,9.616
		C18.085,18.387,15.364,13.345,15.364,9.193z M31.242,9.639c0-5.253-3.025-8.513-6.872-8.513c-2.697,0-5.77,1.501-5.77,7.34
		c0,4.878,2.697,8.748,7.2,8.748C27.442,17.214,31.242,16.417,31.242,9.639z"/>
	<path fill="#FFFFFF" d="M40.744,14.869c0.047,1.829,0.352,2.439,0.82,2.603c0.398,0.141,0.845,0.165,1.22,0.165
		c0.258,0,0.398,0.047,0.398,0.188c0,0.188-0.211,0.234-0.539,0.234c-1.524,0-2.463-0.07-2.908-0.07c-0.211,0-1.313,0.07-2.533,0.07
		c-0.305,0-0.516-0.023-0.516-0.234c0-0.141,0.141-0.188,0.375-0.188c0.305,0,0.728-0.023,1.056-0.118
		c0.609-0.188,0.703-0.868,0.727-2.908l0.212-13.814C39.056,0.328,39.126,0,39.36,0c0.258,0,0.469,0.305,0.867,0.727
		c0.282,0.305,3.847,4.057,7.271,7.458c1.595,1.595,4.761,4.972,5.16,5.347h0.117l-0.234-10.53
		c-0.023-1.431-0.235-1.876-0.798-2.111C51.392,0.75,50.828,0.75,50.5,0.75c-0.281,0-0.375-0.07-0.375-0.211
		c0-0.188,0.258-0.211,0.609-0.211c1.22,0,2.346,0.071,2.838,0.071c0.258,0,1.149-0.071,2.299-0.071
		c0.305,0,0.539,0.023,0.539,0.211c0,0.141-0.141,0.211-0.422,0.211c-0.234,0-0.422,0-0.704,0.07
		c-0.656,0.188-0.844,0.68-0.867,1.994l-0.258,14.799c0,0.516-0.094,0.727-0.306,0.727c-0.258,0-0.539-0.258-0.797-0.516
		c-1.478-1.407-4.479-4.479-6.919-6.895c-2.556-2.533-5.159-5.395-5.581-5.84h-0.07L40.744,14.869z"/>
	<path fill="#FFFFFF" d="M64.764,1.642L61.27,1.735c-1.36,0.047-1.924,0.165-2.275,0.68c-0.234,0.352-0.352,0.633-0.398,0.821
		c-0.047,0.188-0.117,0.282-0.258,0.282c-0.165,0-0.212-0.117-0.212-0.375c0-0.375,0.446-2.509,0.493-2.697
		C58.689,0.141,58.76,0,58.9,0c0.188,0,0.422,0.234,1.009,0.281c0.68,0.07,1.571,0.118,2.345,0.118h9.287
		c0.751,0,1.267-0.071,1.618-0.118c0.352-0.07,0.54-0.117,0.634-0.117c0.164,0,0.188,0.141,0.188,0.493
		c0,0.493-0.07,2.111-0.07,2.721c-0.023,0.234-0.07,0.375-0.211,0.375c-0.188,0-0.235-0.117-0.259-0.469l-0.023-0.258
		c-0.047-0.61-0.68-1.267-2.767-1.313l-2.955-0.07v9.616c0,2.158,0,4.01,0.117,5.019c0.07,0.657,0.211,1.172,0.915,1.266
		c0.328,0.047,0.844,0.094,1.195,0.094c0.258,0,0.376,0.07,0.376,0.188c0,0.164-0.188,0.234-0.446,0.234
		c-1.548,0-3.025-0.07-3.682-0.07c-0.54,0-2.018,0.07-2.955,0.07c-0.305,0-0.469-0.07-0.469-0.234c0-0.117,0.094-0.188,0.375-0.188
		c0.352,0,0.633-0.047,0.844-0.094c0.47-0.094,0.61-0.609,0.681-1.29c0.117-0.985,0.117-2.838,0.117-4.996V1.642z"/>
	<path fill="#FFFFFF" d="M78.299,7.13c0-3.565,0-4.222-0.047-4.972c-0.048-0.797-0.282-1.196-0.798-1.313
		c-0.258-0.07-0.562-0.094-0.845-0.094c-0.234,0-0.375-0.047-0.375-0.234c0-0.141,0.188-0.188,0.563-0.188
		c0.891,0,2.368,0.071,3.049,0.071c0.586,0,1.97-0.071,2.861-0.071c0.305,0,0.492,0.047,0.492,0.188
		c0,0.188-0.141,0.234-0.375,0.234c-0.235,0-0.423,0.023-0.704,0.07c-0.633,0.117-0.82,0.516-0.867,1.337
		c-0.048,0.75-0.048,1.407-0.048,4.972v4.127c0,2.275,0,4.128,0.095,5.136c0.07,0.633,0.234,1.055,0.938,1.149
		c0.328,0.047,0.845,0.094,1.196,0.094c0.258,0,0.375,0.07,0.375,0.188c0,0.164-0.188,0.234-0.445,0.234
		c-1.548,0-3.025-0.07-3.658-0.07c-0.54,0-2.018,0.07-2.955,0.07c-0.306,0-0.47-0.07-0.47-0.234c0-0.117,0.094-0.188,0.375-0.188
		c0.353,0,0.634-0.047,0.845-0.094c0.469-0.094,0.609-0.492,0.68-1.172c0.118-0.985,0.118-2.838,0.118-5.113V7.13z"/>
	<path fill="#FFFFFF" d="M91.856,11.257c0,2.251,0,4.01,0.117,4.996c0.07,0.68,0.211,1.196,0.914,1.29
		c0.328,0.047,0.845,0.094,1.173,0.094c0.305,0,0.398,0.07,0.398,0.188c0,0.164-0.164,0.234-0.516,0.234
		c-1.478,0-2.955-0.07-3.564-0.07c-0.61,0-2.088,0.07-2.979,0.07c-0.329,0-0.493-0.047-0.493-0.234c0-0.117,0.094-0.188,0.352-0.188
		c0.353,0,0.634-0.047,0.845-0.094c0.469-0.094,0.586-0.609,0.68-1.29c0.118-0.985,0.118-2.744,0.118-4.996V7.13
		c0-3.565,0-4.222-0.047-4.972c-0.047-0.797-0.235-1.173-1.009-1.337c-0.188-0.047-0.587-0.07-0.915-0.07
		c-0.234,0-0.398-0.047-0.398-0.188c0-0.188,0.188-0.235,0.539-0.235c0.61,0,1.29,0.023,1.9,0.023
		c0.609,0.024,1.148,0.047,1.478,0.047c0.891,0,5.651,0,6.191-0.023c0.445-0.024,0.727-0.024,0.961-0.094
		c0.141-0.047,0.259-0.141,0.376-0.141c0.094,0,0.164,0.094,0.164,0.211c0,0.165-0.117,0.446-0.188,1.056
		c-0.023,0.234-0.07,1.618-0.117,1.899c-0.023,0.188-0.071,0.329-0.235,0.329s-0.211-0.117-0.234-0.375c0-0.188,0-0.562-0.141-0.891
		c-0.164-0.328-0.656-0.68-1.548-0.704l-3.611-0.07c-0.141,0-0.211,0.07-0.211,0.329v5.863c0,0.141,0.023,0.211,0.164,0.211
		l3.002-0.023c0.398,0,0.727,0,1.055-0.023c0.446-0.023,0.774-0.118,1.009-0.422c0.117-0.141,0.164-0.234,0.305-0.234
		c0.094,0,0.141,0.07,0.141,0.211s-0.117,0.727-0.188,1.454c-0.047,0.469-0.094,1.548-0.094,1.712c0,0.211,0,0.446-0.234,0.446
		c-0.141,0-0.188-0.164-0.188-0.329c0-0.164-0.047-0.445-0.141-0.727c-0.117-0.328-0.47-0.75-1.196-0.844
		c-0.586-0.07-3.072-0.07-3.471-0.07c-0.117,0-0.164,0.047-0.164,0.211V11.257z"/>
	<path fill="#FFFFFF" d="M103.491,7.13c0-3.565,0-4.222-0.047-4.972c-0.047-0.797-0.282-1.196-0.798-1.313
		c-0.258-0.07-0.562-0.094-0.845-0.094c-0.234,0-0.375-0.047-0.375-0.234c0-0.141,0.188-0.188,0.563-0.188
		c0.891,0,2.368,0.071,3.049,0.071c0.586,0,1.97-0.071,2.86-0.071c0.306,0,0.493,0.047,0.493,0.188c0,0.188-0.141,0.234-0.375,0.234
		c-0.235,0-0.423,0.023-0.704,0.07c-0.633,0.117-0.82,0.516-0.867,1.337c-0.047,0.75-0.047,1.407-0.047,4.972v4.127
		c0,2.275,0,4.128,0.094,5.136c0.07,0.633,0.234,1.055,0.938,1.149c0.328,0.047,0.845,0.094,1.196,0.094
		c0.258,0,0.375,0.07,0.375,0.188c0,0.164-0.188,0.234-0.445,0.234c-1.548,0-3.025-0.07-3.659-0.07c-0.539,0-2.017,0.07-2.954,0.07
		c-0.306,0-0.47-0.07-0.47-0.234c0-0.117,0.094-0.188,0.375-0.188c0.353,0,0.634-0.047,0.845-0.094
		c0.469-0.094,0.609-0.492,0.68-1.172c0.118-0.985,0.118-2.838,0.118-5.113V7.13z"/>
	<path fill="#FFFFFF" d="M114.211,15.831c-2.299-2.017-2.908-4.644-2.908-6.918c0-1.595,0.492-4.362,2.744-6.426
		C115.735,0.938,117.963,0,121.458,0c1.454,0,2.321,0.094,3.4,0.234c0.891,0.117,1.642,0.329,2.345,0.399
		c0.259,0.023,0.353,0.141,0.353,0.281c0,0.188-0.07,0.469-0.117,1.29c-0.047,0.774-0.023,2.064-0.07,2.533
		c-0.023,0.352-0.07,0.54-0.282,0.54c-0.188,0-0.234-0.188-0.234-0.516c-0.023-0.727-0.328-1.548-0.914-2.157
		c-0.774-0.821-2.604-1.454-4.762-1.454c-2.04,0-3.377,0.516-4.409,1.454c-1.712,1.571-2.157,3.799-2.157,6.074
		c0,5.582,4.245,8.349,7.388,8.349c2.087,0,3.354-0.235,4.292-1.313c0.398-0.446,0.703-1.126,0.797-1.548
		c0.07-0.375,0.117-0.469,0.306-0.469c0.164,0,0.211,0.164,0.211,0.352c0,0.281-0.281,2.322-0.517,3.119
		c-0.117,0.398-0.211,0.516-0.609,0.68c-0.938,0.375-2.721,0.54-4.222,0.54C119.042,18.387,116.345,17.684,114.211,15.831z"/>
	<path fill="#FFFFFF" d="M132.625,7.13c0-3.565,0-4.222-0.047-4.972c-0.048-0.797-0.282-1.196-0.798-1.313
		c-0.258-0.07-0.562-0.094-0.845-0.094c-0.234,0-0.375-0.047-0.375-0.234c0-0.141,0.188-0.188,0.563-0.188
		c0.891,0,2.368,0.071,3.049,0.071c0.586,0,1.97-0.071,2.861-0.071c0.305,0,0.492,0.047,0.492,0.188
		c0,0.188-0.141,0.234-0.375,0.234c-0.235,0-0.423,0.023-0.704,0.07c-0.633,0.117-0.82,0.516-0.867,1.337
		c-0.048,0.75-0.048,1.407-0.048,4.972v4.127c0,2.275,0,4.128,0.095,5.136c0.07,0.633,0.234,1.055,0.938,1.149
		c0.328,0.047,0.845,0.094,1.196,0.094c0.258,0,0.375,0.07,0.375,0.188c0,0.164-0.188,0.234-0.445,0.234
		c-1.548,0-3.025-0.07-3.658-0.07c-0.54,0-2.018,0.07-2.955,0.07c-0.306,0-0.47-0.07-0.47-0.234c0-0.117,0.094-0.188,0.375-0.188
		c0.353,0,0.634-0.047,0.845-0.094c0.469-0.094,0.609-0.492,0.68-1.172c0.118-0.985,0.118-2.838,0.118-5.113V7.13z"/>
	<path fill="#FFFFFF" d="M144.165,12.078c-0.117,0-0.164,0.047-0.211,0.188l-1.267,3.213c-0.234,0.586-0.352,1.149-0.352,1.431
		c0,0.422,0.211,0.727,0.938,0.727h0.352c0.281,0,0.352,0.047,0.352,0.188c0,0.188-0.141,0.234-0.398,0.234
		c-0.751,0-1.759-0.07-2.486-0.07c-0.258,0-1.548,0.07-2.768,0.07c-0.305,0-0.445-0.047-0.445-0.234
		c0-0.141,0.094-0.188,0.281-0.188c0.211,0,0.54-0.023,0.728-0.047c1.078-0.141,1.524-0.938,1.993-2.11l5.887-14.541
		C147.05,0.258,147.19,0,147.425,0c0.211,0,0.353,0.211,0.587,0.75c0.562,1.29,4.315,10.671,5.816,14.236
		c0.891,2.111,1.571,2.439,2.063,2.556c0.352,0.071,0.703,0.094,0.985,0.094c0.188,0,0.305,0.023,0.305,0.188
		c0,0.188-0.211,0.234-1.079,0.234c-0.844,0-2.557,0-4.433-0.047c-0.422-0.023-0.703-0.023-0.703-0.188
		c0-0.141,0.094-0.188,0.328-0.211c0.164-0.047,0.328-0.258,0.211-0.54l-1.876-4.832c-0.047-0.117-0.117-0.164-0.234-0.164H144.165z
		 M148.949,10.906c0.117,0,0.141-0.071,0.117-0.141l-2.11-5.769c-0.023-0.094-0.047-0.211-0.117-0.211s-0.117,0.118-0.141,0.211
		l-2.158,5.746c-0.023,0.094,0,0.165,0.094,0.165H148.949z"/>
	<path fill="#FFFFFF" d="M165.675,7.13c0-3.565,0-4.222-0.047-4.972c-0.047-0.797-0.234-1.173-1.009-1.337
		c-0.188-0.047-0.586-0.07-0.914-0.07c-0.259,0-0.399-0.047-0.399-0.211s0.164-0.211,0.517-0.211c1.242,0,2.72,0.071,3.424,0.071
		c0.562,0,2.04-0.071,2.885-0.071c0.352,0,0.516,0.047,0.516,0.211s-0.141,0.211-0.375,0.211c-0.258,0-0.398,0.023-0.681,0.07
		c-0.633,0.117-0.82,0.516-0.867,1.337c-0.047,0.75-0.047,1.407-0.047,4.972v3.283c0,3.4,0.68,4.831,1.829,5.77
		c1.056,0.868,2.135,0.961,2.932,0.961c1.032,0,2.299-0.329,3.236-1.267c1.29-1.29,1.36-3.4,1.36-5.816V7.13
		c0-3.565,0-4.222-0.047-4.972c-0.047-0.797-0.234-1.173-1.009-1.337c-0.188-0.047-0.586-0.07-0.844-0.07s-0.398-0.047-0.398-0.211
		s0.164-0.211,0.492-0.211c1.196,0,2.674,0.071,2.697,0.071c0.281,0,1.759-0.071,2.673-0.071c0.329,0,0.493,0.047,0.493,0.211
		s-0.141,0.211-0.422,0.211c-0.259,0-0.399,0.023-0.681,0.07c-0.633,0.117-0.82,0.516-0.867,1.337
		c-0.048,0.75-0.048,1.407-0.048,4.972v2.509c0,2.603-0.258,5.371-2.228,7.059c-1.665,1.431-3.354,1.689-4.878,1.689
		c-1.243,0-3.495-0.071-5.207-1.619c-1.196-1.079-2.087-2.814-2.087-6.215V7.13z"/>
	<path fill="#FFFFFF" d="M187.981,14.869c0.047,1.829,0.353,2.439,0.821,2.603c0.398,0.141,0.845,0.165,1.22,0.165
		c0.258,0,0.398,0.047,0.398,0.188c0,0.188-0.211,0.234-0.539,0.234c-1.524,0-2.463-0.07-2.908-0.07c-0.211,0-1.313,0.07-2.533,0.07
		c-0.305,0-0.516-0.023-0.516-0.234c0-0.141,0.141-0.188,0.375-0.188c0.305,0,0.727-0.023,1.056-0.118
		c0.609-0.188,0.703-0.868,0.727-2.908l0.211-13.814c0-0.469,0.07-0.797,0.306-0.797c0.258,0,0.469,0.305,0.867,0.727
		c0.281,0.305,3.847,4.057,7.271,7.458c1.595,1.595,4.761,4.972,5.159,5.347h0.117l-0.234-10.53
		c-0.023-1.431-0.234-1.876-0.797-2.111c-0.352-0.141-0.915-0.141-1.243-0.141c-0.281,0-0.375-0.07-0.375-0.211
		c0-0.188,0.258-0.211,0.609-0.211c1.22,0,2.346,0.071,2.838,0.071c0.258,0,1.149-0.071,2.299-0.071
		c0.305,0,0.539,0.023,0.539,0.211c0,0.141-0.141,0.211-0.422,0.211c-0.235,0-0.423,0-0.704,0.07
		c-0.656,0.188-0.844,0.68-0.867,1.994l-0.259,14.799c0,0.516-0.094,0.727-0.305,0.727c-0.258,0-0.539-0.258-0.797-0.516
		c-1.478-1.407-4.479-4.479-6.919-6.895c-2.557-2.533-5.159-5.395-5.582-5.84h-0.07L187.981,14.869z"/>
	<path fill="#FFFFFF" d="M208.883,7.13c0-3.565,0-4.222-0.047-4.972c-0.048-0.797-0.282-1.196-0.798-1.313
		c-0.258-0.07-0.562-0.094-0.845-0.094c-0.234,0-0.375-0.047-0.375-0.234c0-0.141,0.188-0.188,0.563-0.188
		c0.891,0,2.368,0.071,3.049,0.071c0.586,0,1.97-0.071,2.861-0.071c0.305,0,0.492,0.047,0.492,0.188
		c0,0.188-0.141,0.234-0.375,0.234c-0.235,0-0.423,0.023-0.704,0.07c-0.633,0.117-0.82,0.516-0.867,1.337
		c-0.048,0.75-0.048,1.407-0.048,4.972v4.127c0,2.275,0,4.128,0.095,5.136c0.07,0.633,0.234,1.055,0.938,1.149
		c0.328,0.047,0.845,0.094,1.196,0.094c0.258,0,0.375,0.07,0.375,0.188c0,0.164-0.188,0.234-0.445,0.234
		c-1.548,0-3.025-0.07-3.658-0.07c-0.54,0-2.018,0.07-2.955,0.07c-0.306,0-0.47-0.07-0.47-0.234c0-0.117,0.094-0.188,0.375-0.188
		c0.353,0,0.634-0.047,0.845-0.094c0.469-0.094,0.609-0.492,0.68-1.172c0.118-0.985,0.118-2.838,0.118-5.113V7.13z"/>
	<path fill="#FFFFFF" d="M217.327,2.627c-0.539-1.29-0.938-1.548-1.782-1.783c-0.352-0.094-0.728-0.094-0.915-0.094
		c-0.211,0-0.281-0.07-0.281-0.211c0-0.188,0.258-0.211,0.61-0.211c1.242,0,2.579,0.071,3.4,0.071c0.586,0,1.712-0.071,2.885-0.071
		c0.281,0,0.539,0.047,0.539,0.211s-0.141,0.211-0.352,0.211c-0.375,0-0.728,0.023-0.915,0.164
		c-0.164,0.117-0.234,0.282-0.234,0.493c0,0.305,0.211,0.961,0.539,1.806l4.034,10.647h0.094c1.009-2.58,4.058-10.131,4.62-11.679
		c0.117-0.305,0.211-0.657,0.211-0.868c0-0.188-0.094-0.375-0.305-0.446c-0.281-0.094-0.633-0.117-0.938-0.117
		c-0.212,0-0.399-0.023-0.399-0.188c0-0.188,0.211-0.235,0.657-0.235c1.173,0,2.157,0.071,2.462,0.071
		c0.399,0,1.501-0.071,2.205-0.071c0.305,0,0.492,0.047,0.492,0.211s-0.141,0.211-0.375,0.211s-0.728,0-1.149,0.281
		c-0.305,0.211-0.656,0.61-1.29,2.111c-0.914,2.205-1.548,3.471-2.814,6.356c-1.501,3.424-2.603,5.98-3.119,7.153
		c-0.609,1.36-0.75,1.736-1.078,1.736c-0.306,0-0.446-0.329-0.892-1.431L217.327,2.627z"/>
	<path fill="#FFFFFF" d="M236.468,7.13c0-3.565,0-4.222-0.047-4.972c-0.047-0.797-0.235-1.173-1.009-1.337
		c-0.188-0.047-0.587-0.07-0.915-0.07c-0.258,0-0.398-0.047-0.398-0.211s0.164-0.211,0.516-0.211c0.634,0,1.313,0.023,1.9,0.023
		c0.609,0.024,1.148,0.047,1.478,0.047c0.75,0,5.417,0,5.862-0.023c0.446-0.047,0.821-0.094,1.009-0.141
		c0.117-0.023,0.258-0.094,0.375-0.094s0.142,0.094,0.142,0.211c0,0.165-0.118,0.446-0.188,1.525
		c-0.023,0.234-0.07,1.266-0.117,1.548c-0.023,0.117-0.07,0.258-0.234,0.258s-0.211-0.117-0.211-0.329
		c0-0.164-0.023-0.562-0.141-0.844c-0.164-0.422-0.398-0.704-1.571-0.844c-0.398-0.047-2.861-0.094-3.33-0.094
		c-0.117,0-0.164,0.07-0.164,0.234v5.934c0,0.165,0.023,0.258,0.164,0.258c0.516,0,3.213,0,3.752-0.047
		c0.563-0.047,0.915-0.118,1.126-0.352c0.164-0.188,0.258-0.305,0.375-0.305c0.094,0,0.164,0.047,0.164,0.188
		s-0.094,0.516-0.188,1.712c-0.023,0.469-0.094,1.407-0.094,1.571c0,0.188,0,0.446-0.211,0.446c-0.164,0-0.211-0.094-0.211-0.211
		c-0.023-0.235-0.023-0.54-0.094-0.844c-0.117-0.469-0.446-0.821-1.313-0.915c-0.445-0.047-2.768-0.07-3.33-0.07
		c-0.117,0-0.141,0.094-0.141,0.235v1.853c0,0.797-0.023,2.955,0,3.635c0.047,1.618,0.422,1.97,2.813,1.97
		c0.61,0,1.595,0,2.205-0.281c0.609-0.281,0.891-0.774,1.056-1.735c0.047-0.258,0.094-0.352,0.258-0.352
		c0.188,0,0.188,0.188,0.188,0.422c0,0.54-0.188,2.134-0.305,2.603c-0.164,0.61-0.376,0.61-1.267,0.61
		c-1.759,0-3.049-0.047-4.058-0.07c-1.009-0.047-1.735-0.07-2.439-0.07c-0.258,0-0.773,0-1.336,0.023
		c-0.54,0-1.149,0.047-1.618,0.047c-0.306,0-0.47-0.07-0.47-0.234c0-0.117,0.094-0.188,0.375-0.188c0.353,0,0.634-0.047,0.845-0.094
		c0.469-0.094,0.586-0.609,0.68-1.29c0.118-0.985,0.118-2.838,0.118-4.996V7.13z"/>
	<path fill="#FFFFFF" d="M251.292,7.13c0-3.565,0-4.222-0.047-4.972c-0.047-0.797-0.235-1.173-1.009-1.337
		c-0.188-0.047-0.587-0.07-0.915-0.07c-0.258,0-0.398-0.047-0.398-0.211s0.164-0.211,0.516-0.211c1.243,0,2.721,0.071,3.213,0.071
		c0.798,0,2.58-0.071,3.308-0.071c1.478,0,3.049,0.141,4.315,1.009c0.656,0.445,1.595,1.642,1.595,3.213
		c0,1.735-0.728,3.331-3.096,5.253c2.087,2.627,3.705,4.714,5.089,6.168c1.313,1.36,2.274,1.524,2.627,1.595
		c0.258,0.047,0.469,0.071,0.656,0.071s0.281,0.07,0.281,0.188c0,0.188-0.164,0.234-0.445,0.234h-2.228
		c-1.313,0-1.9-0.117-2.51-0.445c-1.009-0.54-1.899-1.642-3.213-3.448c-0.938-1.29-2.018-2.885-2.322-3.236
		c-0.117-0.141-0.258-0.165-0.422-0.165l-2.04-0.047c-0.118,0-0.188,0.047-0.188,0.188v0.328c0,2.181,0,4.034,0.117,5.019
		c0.071,0.68,0.212,1.196,0.915,1.29c0.352,0.047,0.868,0.094,1.149,0.094c0.188,0,0.281,0.07,0.281,0.188
		c0,0.164-0.164,0.234-0.469,0.234c-1.36,0-3.096-0.07-3.448-0.07c-0.445,0-1.923,0.07-2.86,0.07c-0.306,0-0.47-0.07-0.47-0.234
		c0-0.117,0.094-0.188,0.375-0.188c0.353,0,0.634-0.047,0.845-0.094c0.469-0.094,0.586-0.609,0.68-1.29
		c0.118-0.985,0.118-2.838,0.118-4.996V7.13z M254.059,8.982c0,0.258,0.047,0.352,0.212,0.422c0.492,0.164,1.195,0.234,1.782,0.234
		c0.938,0,1.243-0.094,1.665-0.399c0.703-0.516,1.384-1.595,1.384-3.518c0-3.331-2.205-4.292-3.589-4.292
		c-0.586,0-1.008,0.023-1.242,0.094c-0.165,0.047-0.212,0.141-0.212,0.328V8.982z"/>
	<path fill="#FFFFFF" d="M267.36,17.777c-0.376-0.164-0.446-0.282-0.446-0.797c0-1.29,0.094-2.697,0.117-3.072
		c0.024-0.352,0.095-0.61,0.282-0.61c0.211,0,0.234,0.211,0.234,0.398c0,0.305,0.094,0.797,0.211,1.196
		c0.516,1.735,1.899,2.369,3.354,2.369c2.111,0,3.143-1.431,3.143-2.674c0-1.149-0.352-2.228-2.298-3.752l-1.079-0.844
		c-2.58-2.017-3.471-3.659-3.471-5.558c0-2.58,2.157-4.433,5.417-4.433c1.524,0,2.51,0.234,3.119,0.399
		c0.212,0.047,0.329,0.117,0.329,0.281c0,0.305-0.094,0.985-0.094,2.814c0,0.516-0.07,0.704-0.259,0.704
		c-0.164,0-0.234-0.141-0.234-0.422c0-0.211-0.117-0.938-0.609-1.548c-0.352-0.446-1.032-1.149-2.557-1.149
		c-1.735,0-2.791,1.009-2.791,2.416c0,1.079,0.54,1.899,2.486,3.377l0.656,0.493c2.838,2.134,3.847,3.752,3.847,5.98
		c0,1.36-0.516,2.979-2.205,4.081c-1.172,0.75-2.485,0.962-3.729,0.962C269.424,18.387,268.368,18.223,267.36,17.777z"/>
	<path fill="#FFFFFF" d="M282.302,7.13c0-3.565,0-4.222-0.047-4.972c-0.047-0.797-0.282-1.196-0.798-1.313
		c-0.258-0.07-0.562-0.094-0.845-0.094c-0.234,0-0.375-0.047-0.375-0.234c0-0.141,0.188-0.188,0.563-0.188
		c0.891,0,2.368,0.071,3.049,0.071c0.586,0,1.97-0.071,2.86-0.071c0.306,0,0.493,0.047,0.493,0.188c0,0.188-0.141,0.234-0.375,0.234
		c-0.235,0-0.423,0.023-0.704,0.07c-0.633,0.117-0.82,0.516-0.867,1.337c-0.047,0.75-0.047,1.407-0.047,4.972v4.127
		c0,2.275,0,4.128,0.094,5.136c0.07,0.633,0.234,1.055,0.938,1.149c0.328,0.047,0.845,0.094,1.196,0.094
		c0.258,0,0.375,0.07,0.375,0.188c0,0.164-0.188,0.234-0.445,0.234c-1.548,0-3.025-0.07-3.659-0.07c-0.539,0-2.017,0.07-2.954,0.07
		c-0.306,0-0.47-0.07-0.47-0.234c0-0.117,0.094-0.188,0.375-0.188c0.353,0,0.634-0.047,0.845-0.094
		c0.469-0.094,0.609-0.492,0.68-1.172c0.118-0.985,0.118-2.838,0.118-5.113V7.13z"/>
	<path fill="#FFFFFF" d="M292.904,7.13c0-3.565,0-4.222-0.047-4.972c-0.048-0.797-0.235-1.173-1.009-1.337
		c-0.188-0.047-0.587-0.07-0.915-0.07c-0.258,0-0.398-0.047-0.398-0.211s0.164-0.211,0.516-0.211c1.243,0,2.721,0.071,3.378,0.071
		c0.727,0,2.204-0.071,3.611-0.071c2.932,0,6.849,0,9.404,2.674c1.173,1.22,2.275,3.166,2.275,5.957
		c0,2.955-1.243,5.207-2.557,6.543c-1.079,1.102-3.518,2.767-7.856,2.767c-0.845,0-1.806-0.07-2.697-0.141s-1.712-0.141-2.298-0.141
		c-0.259,0-0.774,0-1.337,0.023c-0.54,0-1.149,0.047-1.618,0.047c-0.306,0-0.47-0.07-0.47-0.234c0-0.117,0.094-0.188,0.375-0.188
		c0.353,0,0.634-0.047,0.845-0.094c0.469-0.094,0.586-0.609,0.68-1.29c0.118-0.985,0.118-2.838,0.118-4.996V7.13z M295.836,9.709
		c0,2.486,0.023,4.292,0.047,4.737c0.023,0.586,0.07,1.524,0.258,1.783c0.305,0.445,1.22,0.938,3.072,0.938
		c2.392,0,3.986-0.469,5.394-1.688c1.501-1.29,1.971-3.424,1.971-5.84c0-2.979-1.243-4.902-2.252-5.863
		c-2.157-2.064-4.831-2.345-6.66-2.345c-0.47,0-1.337,0.07-1.524,0.164c-0.211,0.094-0.281,0.211-0.281,0.469
		c-0.023,0.797-0.023,2.838-0.023,4.69V9.709z"/>
	<path fill="#FFFFFF" d="M315.798,12.078c-0.117,0-0.164,0.047-0.211,0.188l-1.267,3.213c-0.234,0.586-0.352,1.149-0.352,1.431
		c0,0.422,0.211,0.727,0.938,0.727h0.352c0.281,0,0.352,0.047,0.352,0.188c0,0.188-0.141,0.234-0.398,0.234
		c-0.751,0-1.759-0.07-2.486-0.07c-0.258,0-1.548,0.07-2.768,0.07c-0.305,0-0.445-0.047-0.445-0.234
		c0-0.141,0.094-0.188,0.281-0.188c0.211,0,0.54-0.023,0.728-0.047c1.078-0.141,1.524-0.938,1.993-2.11l5.887-14.541
		C318.683,0.258,318.823,0,319.058,0c0.211,0,0.353,0.211,0.587,0.75c0.562,1.29,4.315,10.671,5.816,14.236
		c0.891,2.111,1.571,2.439,2.063,2.556c0.352,0.071,0.703,0.094,0.985,0.094c0.188,0,0.305,0.023,0.305,0.188
		c0,0.188-0.211,0.234-1.079,0.234c-0.844,0-2.557,0-4.433-0.047c-0.422-0.023-0.703-0.023-0.703-0.188
		c0-0.141,0.094-0.188,0.328-0.211c0.164-0.047,0.328-0.258,0.211-0.54l-1.876-4.832c-0.047-0.117-0.117-0.164-0.234-0.164H315.798z
		 M320.582,10.906c0.117,0,0.141-0.071,0.117-0.141l-2.11-5.769c-0.023-0.094-0.047-0.211-0.117-0.211s-0.117,0.118-0.141,0.211
		l-2.158,5.746c-0.023,0.094,0,0.165,0.094,0.165H320.582z"/>
	<path fill="#FFFFFF" d="M331.279,7.13c0-3.565,0-4.222-0.047-4.972c-0.048-0.797-0.235-1.173-1.009-1.337
		c-0.188-0.047-0.587-0.07-0.915-0.07c-0.258,0-0.398-0.047-0.398-0.211s0.164-0.211,0.516-0.211c1.243,0,2.721,0.071,3.378,0.071
		c0.727,0,2.204-0.071,3.611-0.071c2.932,0,6.849,0,9.404,2.674c1.173,1.22,2.275,3.166,2.275,5.957
		c0,2.955-1.243,5.207-2.557,6.543c-1.079,1.102-3.518,2.767-7.856,2.767c-0.845,0-1.806-0.07-2.697-0.141s-1.712-0.141-2.298-0.141
		c-0.259,0-0.774,0-1.337,0.023c-0.54,0-1.149,0.047-1.618,0.047c-0.306,0-0.47-0.07-0.47-0.234c0-0.117,0.094-0.188,0.375-0.188
		c0.353,0,0.634-0.047,0.845-0.094c0.469-0.094,0.586-0.609,0.68-1.29c0.118-0.985,0.118-2.838,0.118-4.996V7.13z M334.211,9.709
		c0,2.486,0.023,4.292,0.047,4.737c0.023,0.586,0.07,1.524,0.258,1.783c0.305,0.445,1.22,0.938,3.072,0.938
		c2.392,0,3.986-0.469,5.394-1.688c1.501-1.29,1.971-3.424,1.971-5.84c0-2.979-1.243-4.902-2.252-5.863
		c-2.157-2.064-4.831-2.345-6.66-2.345c-0.47,0-1.337,0.07-1.524,0.164c-0.211,0.094-0.281,0.211-0.281,0.469
		c-0.023,0.797-0.023,2.838-0.023,4.69V9.709z"/>
	<path fill="#FFFFFF" d="M2.908,43.979C0.61,41.962,0,39.335,0,37.061c0-1.595,0.492-4.362,2.744-6.426
		c1.688-1.548,3.917-2.486,7.411-2.486c1.454,0,2.321,0.094,3.4,0.234c0.892,0.117,1.642,0.329,2.346,0.399
		c0.258,0.023,0.352,0.141,0.352,0.281c0,0.188-0.07,0.469-0.117,1.29c-0.047,0.774-0.023,2.064-0.07,2.533
		c-0.023,0.352-0.07,0.54-0.281,0.54c-0.188,0-0.235-0.188-0.235-0.516c-0.023-0.727-0.328-1.548-0.914-2.157
		c-0.774-0.821-2.604-1.454-4.761-1.454c-2.041,0-3.378,0.516-4.409,1.454c-1.712,1.571-2.158,3.799-2.158,6.074
		c0,5.581,4.245,8.349,7.388,8.349c2.088,0,3.354-0.234,4.292-1.312c0.398-0.446,0.704-1.127,0.798-1.549
		c0.07-0.375,0.117-0.469,0.305-0.469c0.164,0,0.211,0.164,0.211,0.352c0,0.281-0.281,2.322-0.516,3.119
		c-0.117,0.398-0.212,0.517-0.61,0.681c-0.938,0.375-2.721,0.54-4.222,0.54C7.739,46.536,5.042,45.832,2.908,43.979z"/>
	<path fill="#FFFFFF" d="M22.963,40.227c-0.117,0-0.164,0.047-0.211,0.188l-1.267,3.214c-0.234,0.586-0.352,1.148-0.352,1.43
		c0,0.422,0.211,0.728,0.938,0.728h0.352c0.281,0,0.352,0.047,0.352,0.188c0,0.188-0.141,0.234-0.398,0.234
		c-0.75,0-1.759-0.07-2.486-0.07c-0.258,0-1.548,0.07-2.767,0.07c-0.306,0-0.446-0.047-0.446-0.234c0-0.141,0.094-0.188,0.281-0.188
		c0.212,0,0.54-0.023,0.728-0.048c1.079-0.141,1.524-0.938,1.993-2.109l5.887-14.542c0.281-0.68,0.422-0.938,0.657-0.938
		c0.211,0,0.352,0.211,0.586,0.75c0.562,1.29,4.315,10.671,5.816,14.236c0.891,2.11,1.571,2.438,2.063,2.556
		c0.352,0.071,0.704,0.095,0.985,0.095c0.188,0,0.305,0.023,0.305,0.188c0,0.188-0.211,0.234-1.079,0.234
		c-0.844,0-2.556,0-4.433-0.047c-0.422-0.023-0.703-0.023-0.703-0.188c0-0.141,0.094-0.188,0.328-0.211
		c0.164-0.048,0.328-0.259,0.211-0.54l-1.876-4.831c-0.047-0.117-0.117-0.164-0.234-0.164H22.963z M27.748,39.054
		c0.117,0,0.141-0.071,0.117-0.141l-2.111-5.769c-0.023-0.094-0.047-0.211-0.117-0.211s-0.117,0.118-0.141,0.211l-2.157,5.746
		c-0.023,0.094,0,0.165,0.094,0.165H27.748z"/>
	<path fill="#FFFFFF" d="M40.04,29.79l-3.494,0.094c-1.36,0.047-1.924,0.165-2.275,0.68c-0.234,0.352-0.352,0.633-0.398,0.821
		c-0.047,0.188-0.117,0.282-0.258,0.282c-0.165,0-0.212-0.117-0.212-0.375c0-0.375,0.446-2.509,0.493-2.697
		c0.07-0.305,0.141-0.446,0.281-0.446c0.188,0,0.422,0.234,1.009,0.281c0.68,0.07,1.571,0.118,2.345,0.118h9.287
		c0.751,0,1.267-0.071,1.618-0.118c0.353-0.07,0.54-0.117,0.634-0.117c0.164,0,0.188,0.141,0.188,0.493
		c0,0.493-0.07,2.111-0.07,2.721c-0.023,0.234-0.07,0.375-0.211,0.375c-0.188,0-0.234-0.117-0.258-0.469l-0.023-0.258
		c-0.047-0.61-0.681-1.267-2.768-1.313l-2.955-0.07v9.616c0,2.158,0,4.01,0.117,5.019c0.07,0.656,0.211,1.172,0.915,1.266
		c0.328,0.047,0.844,0.095,1.195,0.095c0.258,0,0.376,0.07,0.376,0.188c0,0.164-0.188,0.234-0.446,0.234
		c-1.548,0-3.025-0.07-3.682-0.07c-0.54,0-2.018,0.07-2.955,0.07c-0.305,0-0.469-0.07-0.469-0.234c0-0.117,0.094-0.188,0.375-0.188
		c0.352,0,0.633-0.048,0.844-0.095c0.47-0.094,0.61-0.609,0.681-1.289c0.117-0.985,0.117-2.838,0.117-4.996V29.79z"/>
	<path fill="#FFFFFF" d="M50.715,37.342c0-4.01,2.649-9.193,9.686-9.193c5.84,0,9.475,3.401,9.475,8.771
		c0,5.37-3.752,9.616-9.709,9.616C53.435,46.536,50.715,41.493,50.715,37.342z M66.592,37.788c0-5.253-3.025-8.513-6.871-8.513
		c-2.697,0-5.77,1.501-5.77,7.34c0,4.878,2.697,8.748,7.2,8.748C62.793,45.362,66.592,44.565,66.592,37.788z M64.177,24.748
		c0.141,0.281,0,0.352-0.118,0.352c-0.117,0-0.328-0.047-0.797,0c-1.29,0.164-3.143,0.915-4.011,1.384
		c-0.188,0.094-0.352,0.188-0.398,0.188s-0.141-0.047-0.141-0.141s0.094-0.188,0.211-0.305c0.938-0.891,3.4-2.72,3.776-2.955
		c0.234-0.165,0.398-0.211,0.469-0.211c0.164,0,0.211,0.07,0.328,0.282C63.684,23.669,63.895,24.115,64.177,24.748z"/>
	<path fill="#FFFFFF" d="M77.712,39.406c0,3.001,0,4.621,0.492,5.042c0.399,0.352,1.009,0.516,2.838,0.516
		c1.243,0,2.158-0.023,2.744-0.656c0.281-0.305,0.562-0.962,0.609-1.407c0.023-0.212,0.071-0.353,0.259-0.353
		c0.164,0,0.188,0.117,0.188,0.399c0,0.258-0.164,2.017-0.352,2.696c-0.142,0.517-0.259,0.634-1.478,0.634
		c-1.689,0-2.908-0.047-3.964-0.07c-1.056-0.047-1.899-0.07-2.861-0.07c-0.258,0-0.774,0-1.337,0.023
		c-0.539,0-1.149,0.047-1.618,0.047c-0.305,0-0.469-0.07-0.469-0.234c0-0.117,0.094-0.188,0.375-0.188
		c0.352,0,0.633-0.048,0.845-0.095c0.469-0.094,0.586-0.609,0.68-1.289c0.117-0.985,0.117-2.838,0.117-4.996v-4.127
		c0-3.565,0-4.222-0.047-4.972c-0.047-0.797-0.234-1.173-1.009-1.337c-0.188-0.047-0.469-0.07-0.773-0.07
		c-0.258,0-0.398-0.047-0.398-0.211s0.164-0.211,0.516-0.211c1.103,0,2.58,0.071,3.213,0.071c0.562,0,2.275-0.071,3.189-0.071
		c0.328,0,0.493,0.047,0.493,0.211s-0.142,0.211-0.423,0.211c-0.258,0-0.633,0.023-0.914,0.07c-0.634,0.117-0.821,0.516-0.868,1.337
		c-0.047,0.75-0.047,1.407-0.047,4.972V39.406z"/>
	<path fill="#FFFFFF" d="M88.972,35.278c0-3.565,0-4.222-0.047-4.972c-0.047-0.797-0.282-1.196-0.798-1.313
		c-0.258-0.07-0.562-0.094-0.845-0.094c-0.234,0-0.375-0.047-0.375-0.234c0-0.141,0.188-0.188,0.563-0.188
		c0.891,0,2.368,0.071,3.049,0.071c0.586,0,1.97-0.071,2.86-0.071c0.306,0,0.493,0.047,0.493,0.188c0,0.188-0.141,0.234-0.375,0.234
		c-0.235,0-0.423,0.023-0.704,0.07c-0.633,0.117-0.82,0.516-0.867,1.337c-0.047,0.75-0.047,1.407-0.047,4.972v4.127
		c0,2.275,0,4.128,0.094,5.136c0.07,0.633,0.234,1.055,0.938,1.148c0.328,0.047,0.845,0.095,1.196,0.095
		c0.258,0,0.375,0.07,0.375,0.188c0,0.164-0.188,0.234-0.445,0.234c-1.548,0-3.025-0.07-3.659-0.07c-0.539,0-2.017,0.07-2.954,0.07
		c-0.306,0-0.47-0.07-0.47-0.234c0-0.117,0.094-0.188,0.375-0.188c0.353,0,0.634-0.048,0.845-0.095
		c0.469-0.094,0.609-0.492,0.68-1.172c0.118-0.984,0.118-2.838,0.118-5.113V35.278z"/>
	<path fill="#FFFFFF" d="M99.691,43.979c-2.299-2.018-2.908-4.644-2.908-6.919c0-1.595,0.492-4.362,2.744-6.426
		c1.688-1.548,3.916-2.486,7.411-2.486c1.454,0,2.321,0.094,3.4,0.234c0.891,0.117,1.642,0.329,2.345,0.399
		c0.259,0.023,0.353,0.141,0.353,0.281c0,0.188-0.07,0.469-0.117,1.29c-0.047,0.774-0.023,2.064-0.07,2.533
		c-0.023,0.352-0.07,0.54-0.282,0.54c-0.188,0-0.234-0.188-0.234-0.516c-0.023-0.727-0.328-1.548-0.914-2.157
		c-0.774-0.821-2.604-1.454-4.762-1.454c-2.04,0-3.377,0.516-4.409,1.454c-1.712,1.571-2.157,3.799-2.157,6.074
		c0,5.581,4.245,8.349,7.388,8.349c2.087,0,3.354-0.234,4.292-1.312c0.398-0.446,0.703-1.127,0.797-1.549
		c0.07-0.375,0.117-0.469,0.306-0.469c0.164,0,0.211,0.164,0.211,0.352c0,0.281-0.281,2.322-0.517,3.119
		c-0.117,0.398-0.211,0.517-0.609,0.681c-0.938,0.375-2.721,0.54-4.222,0.54C104.522,46.536,101.825,45.832,99.691,43.979z"/>
	<path fill="#FFFFFF" d="M119.746,40.227c-0.117,0-0.164,0.047-0.211,0.188l-1.267,3.214c-0.234,0.586-0.352,1.148-0.352,1.43
		c0,0.422,0.211,0.728,0.938,0.728h0.352c0.281,0,0.352,0.047,0.352,0.188c0,0.188-0.141,0.234-0.398,0.234
		c-0.751,0-1.759-0.07-2.486-0.07c-0.258,0-1.548,0.07-2.768,0.07c-0.305,0-0.445-0.047-0.445-0.234
		c0-0.141,0.094-0.188,0.281-0.188c0.211,0,0.54-0.023,0.728-0.048c1.078-0.141,1.524-0.938,1.993-2.109l5.887-14.542
		c0.281-0.68,0.422-0.938,0.656-0.938c0.212,0,0.353,0.211,0.587,0.75c0.562,1.29,4.315,10.671,5.816,14.236
		c0.891,2.11,1.571,2.438,2.063,2.556c0.352,0.071,0.703,0.095,0.985,0.095c0.188,0,0.305,0.023,0.305,0.188
		c0,0.188-0.211,0.234-1.079,0.234c-0.844,0-2.557,0-4.433-0.047c-0.422-0.023-0.703-0.023-0.703-0.188
		c0-0.141,0.094-0.188,0.328-0.211c0.164-0.048,0.328-0.259,0.211-0.54l-1.876-4.831c-0.047-0.117-0.117-0.164-0.234-0.164H119.746z
		 M124.53,39.054c0.117,0,0.141-0.071,0.117-0.141l-2.11-5.769c-0.023-0.094-0.047-0.211-0.117-0.211s-0.117,0.118-0.141,0.211
		l-2.158,5.746c-0.023,0.094,0,0.165,0.095,0.165H124.53z"/>
	<path fill="#FFFFFF" d="M142.266,35.278c0-3.565,0-4.222-0.047-4.972c-0.048-0.797-0.235-1.173-1.009-1.337
		c-0.188-0.047-0.587-0.07-0.915-0.07c-0.258,0-0.398-0.047-0.398-0.211s0.164-0.211,0.516-0.211c1.243,0,2.721,0.071,3.378,0.071
		c0.727,0,2.204-0.071,3.611-0.071c2.932,0,6.849,0,9.404,2.674c1.173,1.22,2.275,3.166,2.275,5.957
		c0,2.955-1.243,5.206-2.557,6.544c-1.079,1.102-3.518,2.767-7.856,2.767c-0.845,0-1.806-0.07-2.697-0.141s-1.712-0.141-2.298-0.141
		c-0.259,0-0.774,0-1.337,0.023c-0.54,0-1.149,0.047-1.618,0.047c-0.306,0-0.47-0.07-0.47-0.234c0-0.117,0.094-0.188,0.375-0.188
		c0.353,0,0.634-0.048,0.845-0.095c0.469-0.094,0.586-0.609,0.68-1.289c0.118-0.985,0.118-2.838,0.118-4.996V35.278z
		 M145.197,37.858c0,2.486,0.023,4.292,0.047,4.737c0.023,0.587,0.07,1.525,0.258,1.783c0.305,0.445,1.22,0.938,3.072,0.938
		c2.392,0,3.986-0.469,5.394-1.688c1.501-1.291,1.971-3.425,1.971-5.84c0-2.979-1.243-4.902-2.252-5.863
		c-2.157-2.064-4.831-2.345-6.66-2.345c-0.47,0-1.337,0.07-1.524,0.164c-0.211,0.094-0.281,0.211-0.281,0.469
		c-0.023,0.797-0.023,2.838-0.023,4.69V37.858z"/>
	<path fill="#FFFFFF" d="M163.986,35.278c0-3.565,0-4.222-0.047-4.972c-0.048-0.797-0.235-1.173-1.009-1.337
		c-0.188-0.047-0.587-0.07-0.915-0.07c-0.258,0-0.398-0.047-0.398-0.211s0.164-0.211,0.516-0.211c0.634,0,1.313,0.023,1.9,0.023
		c0.609,0.024,1.148,0.047,1.478,0.047c0.75,0,5.417,0,5.862-0.023c0.446-0.047,0.821-0.094,1.009-0.141
		c0.117-0.023,0.258-0.094,0.375-0.094s0.141,0.094,0.141,0.211c0,0.165-0.117,0.446-0.188,1.525
		c-0.023,0.234-0.07,1.266-0.117,1.548c-0.023,0.117-0.07,0.258-0.234,0.258s-0.211-0.117-0.211-0.329
		c0-0.164-0.023-0.562-0.141-0.844c-0.164-0.422-0.398-0.704-1.571-0.844c-0.398-0.047-2.861-0.094-3.33-0.094
		c-0.117,0-0.164,0.07-0.164,0.234v5.934c0,0.165,0.023,0.258,0.164,0.258c0.516,0,3.213,0,3.752-0.047
		c0.563-0.047,0.915-0.118,1.126-0.352c0.164-0.188,0.258-0.305,0.375-0.305c0.094,0,0.164,0.047,0.164,0.188
		s-0.094,0.516-0.188,1.712c-0.023,0.469-0.094,1.407-0.094,1.571c0,0.188,0,0.446-0.211,0.446c-0.164,0-0.211-0.094-0.211-0.211
		c-0.023-0.235-0.023-0.54-0.094-0.844c-0.117-0.469-0.446-0.821-1.313-0.915c-0.445-0.047-2.768-0.07-3.33-0.07
		c-0.117,0-0.141,0.094-0.141,0.235v1.853c0,0.797-0.023,2.955,0,3.635c0.047,1.618,0.422,1.97,2.813,1.97
		c0.61,0,1.595,0,2.205-0.281c0.609-0.281,0.891-0.773,1.056-1.735c0.047-0.259,0.094-0.353,0.258-0.353
		c0.188,0,0.188,0.188,0.188,0.423c0,0.54-0.188,2.134-0.305,2.603c-0.164,0.61-0.376,0.61-1.267,0.61
		c-1.759,0-3.049-0.047-4.058-0.07c-1.009-0.047-1.735-0.07-2.438-0.07c-0.259,0-0.774,0-1.337,0.023
		c-0.54,0-1.149,0.047-1.618,0.047c-0.306,0-0.47-0.07-0.47-0.234c0-0.117,0.094-0.188,0.375-0.188c0.353,0,0.634-0.048,0.845-0.095
		c0.469-0.094,0.586-0.609,0.68-1.289c0.118-0.985,0.118-2.838,0.118-4.996V35.278z"/>
	<path fill="#FFFFFF" d="M186.199,43.979c-2.299-2.018-2.908-4.644-2.908-6.919c0-1.595,0.492-4.362,2.744-6.426
		c1.688-1.548,3.916-2.486,7.411-2.486c1.454,0,2.321,0.094,3.4,0.234c0.891,0.117,1.642,0.329,2.345,0.399
		c0.259,0.023,0.353,0.141,0.353,0.281c0,0.188-0.07,0.469-0.117,1.29c-0.047,0.774-0.023,2.064-0.07,2.533
		c-0.023,0.352-0.07,0.54-0.282,0.54c-0.188,0-0.234-0.188-0.234-0.516c-0.023-0.727-0.328-1.548-0.914-2.157
		c-0.774-0.821-2.604-1.454-4.762-1.454c-2.04,0-3.377,0.516-4.409,1.454c-1.712,1.571-2.157,3.799-2.157,6.074
		c0,5.581,4.245,8.349,7.388,8.349c2.087,0,3.354-0.234,4.292-1.312c0.398-0.446,0.703-1.127,0.797-1.549
		c0.07-0.375,0.117-0.469,0.306-0.469c0.164,0,0.211,0.164,0.211,0.352c0,0.281-0.281,2.322-0.517,3.119
		c-0.117,0.398-0.211,0.517-0.609,0.681c-0.938,0.375-2.721,0.54-4.222,0.54C191.03,46.536,188.333,45.832,186.199,43.979z"/>
	<path fill="#FFFFFF" d="M216.645,35.935c0.07,0,0.141-0.047,0.141-0.164v-0.492c0-3.565,0-4.222-0.047-4.972
		c-0.047-0.797-0.235-1.173-1.009-1.337c-0.188-0.047-0.586-0.07-0.915-0.07c-0.258,0-0.398-0.047-0.398-0.211
		s0.164-0.211,0.492-0.211c1.267,0,2.744,0.071,3.378,0.071c0.562,0,2.04-0.071,2.955-0.071c0.328,0,0.492,0.047,0.492,0.211
		s-0.141,0.211-0.422,0.211c-0.188,0-0.399,0.023-0.681,0.07c-0.633,0.117-0.82,0.516-0.867,1.337
		c-0.047,0.75-0.047,1.407-0.047,4.972v4.127c0,2.158,0,4.01,0.117,5.019c0.07,0.656,0.211,1.172,0.914,1.266
		c0.329,0.047,0.845,0.095,1.196,0.095c0.258,0,0.375,0.07,0.375,0.188c0,0.164-0.188,0.234-0.469,0.234
		c-1.524,0-3.002-0.07-3.658-0.07c-0.54,0-2.018,0.07-2.932,0.07c-0.329,0-0.493-0.07-0.493-0.234c0-0.117,0.094-0.188,0.376-0.188
		c0.352,0,0.633-0.048,0.844-0.095c0.469-0.094,0.587-0.609,0.681-1.289c0.117-0.985,0.117-2.838,0.117-4.996v-2.064
		c0-0.094-0.07-0.141-0.141-0.141h-8.959c-0.07,0-0.141,0.023-0.141,0.141v2.064c0,2.158,0,4.01,0.117,5.019
		c0.07,0.656,0.211,1.172,0.914,1.266c0.328,0.047,0.845,0.095,1.196,0.095c0.258,0,0.375,0.07,0.375,0.188
		c0,0.164-0.188,0.234-0.469,0.234c-1.524,0-3.002-0.07-3.658-0.07c-0.54,0-2.018,0.07-2.955,0.07c-0.306,0-0.47-0.07-0.47-0.234
		c0-0.117,0.094-0.188,0.375-0.188c0.353,0,0.634-0.048,0.845-0.095c0.469-0.094,0.586-0.609,0.68-1.289
		c0.118-0.985,0.118-2.838,0.118-4.996v-4.127c0-3.565,0-4.222-0.047-4.972c-0.048-0.797-0.235-1.173-1.009-1.337
		c-0.188-0.047-0.587-0.07-0.915-0.07c-0.258,0-0.398-0.047-0.398-0.211s0.164-0.211,0.492-0.211c1.267,0,2.744,0.071,3.378,0.071
		c0.562,0,2.04-0.071,2.955-0.071c0.328,0,0.492,0.047,0.492,0.211s-0.141,0.211-0.422,0.211c-0.188,0-0.399,0.023-0.681,0.07
		c-0.633,0.117-0.82,0.516-0.867,1.337c-0.047,0.75-0.047,1.407-0.047,4.972v0.492c0,0.117,0.07,0.164,0.141,0.164H216.645z"/>
	<path fill="#FFFFFF" d="M227.413,35.278c0-3.565,0-4.222-0.047-4.972c-0.047-0.797-0.282-1.196-0.798-1.313
		c-0.258-0.07-0.562-0.094-0.845-0.094c-0.234,0-0.375-0.047-0.375-0.234c0-0.141,0.188-0.188,0.563-0.188
		c0.891,0,2.368,0.071,3.049,0.071c0.586,0,1.97-0.071,2.86-0.071c0.306,0,0.493,0.047,0.493,0.188c0,0.188-0.141,0.234-0.375,0.234
		c-0.235,0-0.423,0.023-0.704,0.07c-0.633,0.117-0.82,0.516-0.867,1.337c-0.047,0.75-0.047,1.407-0.047,4.972v4.127
		c0,2.275,0,4.128,0.094,5.136c0.07,0.633,0.234,1.055,0.938,1.148c0.328,0.047,0.845,0.095,1.196,0.095
		c0.258,0,0.375,0.07,0.375,0.188c0,0.164-0.188,0.234-0.445,0.234c-1.548,0-3.025-0.07-3.659-0.07c-0.539,0-2.017,0.07-2.954,0.07
		c-0.306,0-0.47-0.07-0.47-0.234c0-0.117,0.094-0.188,0.375-0.188c0.353,0,0.634-0.048,0.845-0.095
		c0.469-0.094,0.609-0.492,0.68-1.172c0.118-0.984,0.118-2.838,0.118-5.113V35.278z"/>
	<path fill="#FFFFFF" d="M240.947,39.406c0,3.001,0,4.621,0.492,5.042c0.398,0.352,1.009,0.516,2.838,0.516
		c1.243,0,2.157-0.023,2.744-0.656c0.281-0.305,0.562-0.962,0.609-1.407c0.023-0.212,0.07-0.353,0.258-0.353
		c0.164,0,0.188,0.117,0.188,0.399c0,0.258-0.164,2.017-0.352,2.696c-0.141,0.517-0.258,0.634-1.478,0.634
		c-1.688,0-2.908-0.047-3.964-0.07c-1.055-0.047-1.899-0.07-2.86-0.07c-0.259,0-0.774,0-1.337,0.023
		c-0.54,0-1.149,0.047-1.618,0.047c-0.306,0-0.47-0.07-0.47-0.234c0-0.117,0.094-0.188,0.375-0.188c0.353,0,0.634-0.048,0.845-0.095
		c0.469-0.094,0.586-0.609,0.68-1.289c0.118-0.985,0.118-2.838,0.118-4.996v-4.127c0-3.565,0-4.222-0.047-4.972
		c-0.048-0.797-0.235-1.173-1.009-1.337c-0.188-0.047-0.469-0.07-0.774-0.07c-0.258,0-0.398-0.047-0.398-0.211
		s0.164-0.211,0.516-0.211c1.103,0,2.58,0.071,3.214,0.071c0.562,0,2.274-0.071,3.189-0.071c0.328,0,0.492,0.047,0.492,0.211
		s-0.141,0.211-0.422,0.211c-0.258,0-0.634,0.023-0.915,0.07c-0.633,0.117-0.82,0.516-0.867,1.337
		c-0.047,0.75-0.047,1.407-0.047,4.972V39.406z"/>
	<path fill="#FFFFFF" d="M252.207,35.278c0-3.565,0-4.222-0.047-4.972c-0.048-0.797-0.235-1.173-1.009-1.337
		c-0.188-0.047-0.587-0.07-0.915-0.07c-0.258,0-0.398-0.047-0.398-0.211s0.164-0.211,0.516-0.211c0.634,0,1.313,0.023,1.9,0.023
		c0.609,0.024,1.148,0.047,1.478,0.047c0.75,0,5.417,0,5.862-0.023c0.446-0.047,0.821-0.094,1.009-0.141
		c0.117-0.023,0.258-0.094,0.375-0.094s0.141,0.094,0.141,0.211c0,0.165-0.117,0.446-0.188,1.525
		c-0.023,0.234-0.07,1.266-0.117,1.548c-0.023,0.117-0.07,0.258-0.234,0.258s-0.211-0.117-0.211-0.329
		c0-0.164-0.023-0.562-0.141-0.844c-0.164-0.422-0.398-0.704-1.571-0.844c-0.398-0.047-2.861-0.094-3.33-0.094
		c-0.117,0-0.164,0.07-0.164,0.234v5.934c0,0.165,0.023,0.258,0.164,0.258c0.516,0,3.213,0,3.752-0.047
		c0.563-0.047,0.915-0.118,1.126-0.352c0.164-0.188,0.258-0.305,0.375-0.305c0.094,0,0.164,0.047,0.164,0.188
		s-0.094,0.516-0.188,1.712c-0.023,0.469-0.094,1.407-0.094,1.571c0,0.188,0,0.446-0.211,0.446c-0.164,0-0.211-0.094-0.211-0.211
		c-0.023-0.235-0.023-0.54-0.094-0.844c-0.117-0.469-0.446-0.821-1.313-0.915c-0.445-0.047-2.768-0.07-3.33-0.07
		c-0.117,0-0.141,0.094-0.141,0.235v1.853c0,0.797-0.023,2.955,0,3.635c0.047,1.618,0.422,1.97,2.813,1.97
		c0.61,0,1.595,0,2.205-0.281c0.609-0.281,0.891-0.773,1.056-1.735c0.047-0.259,0.094-0.353,0.258-0.353
		c0.188,0,0.188,0.188,0.188,0.423c0,0.54-0.188,2.134-0.305,2.603c-0.164,0.61-0.376,0.61-1.267,0.61
		c-1.759,0-3.049-0.047-4.058-0.07c-1.009-0.047-1.735-0.07-2.438-0.07c-0.259,0-0.774,0-1.337,0.023
		c-0.54,0-1.149,0.047-1.618,0.047c-0.306,0-0.47-0.07-0.47-0.234c0-0.117,0.094-0.188,0.375-0.188c0.353,0,0.634-0.048,0.845-0.095
		c0.469-0.094,0.586-0.609,0.68-1.289c0.118-0.985,0.118-2.838,0.118-4.996V35.278z"/>
</g>
</svg>
