<?xml version="1.0" encoding="utf-8"?>
<!-- Generator: Adobe Illustrator 20.1.0, SVG Export Plug-In . SVG Version: 6.00 Build 0)  -->
<svg version="1.1" id="Capa_1" xmlns="http://www.w3.org/2000/svg" xmlns:xlink="http://www.w3.org/1999/xlink" x="0px" y="0px"
	 viewBox="0 0 90.4 9.9" style="enable-background:new 0 0 90.4 9.9;" xml:space="preserve">
<style type="text/css">
	.st0{fill:#FFFFFF;}
	.st1{fill:#3D7EDB;}
</style>
<g>
	<path class="st0" d="M9.3,9.8H7.1L6.4,7.6H2.9L2.1,9.8H0l3.6-9.4h2.1L9.3,9.8z M5.3,4.4c-0.3-0.9-0.5-1.4-0.6-2
		C4.5,2.9,4.5,3,4.3,3.4C4.2,3.7,4.1,4.2,4,4.4L3.4,6.1h2.5L5.3,4.4z"/>
	<path class="st0" d="M16.4,9.8h-1.8V8.9c-0.5,0.7-1.1,1.1-2.1,1.1c-1.8,0-3-1.4-3-3.7c0-2.1,1.2-3.5,3-3.5c0.9,0,1.6,0.4,2.1,1V0.3
		h1.9V9.8z M11.3,6.3c0,1.3,0.6,2.1,1.6,2.1c1,0,1.6-0.8,1.6-2.1c0-1.3-0.6-2.1-1.6-2.1C11.9,4.2,11.3,5,11.3,6.3z"/>
	<path class="st0" d="M19.7,3.9c0.6-0.8,1.2-1.1,2.2-1.1c0.9,0,1.5,0.4,1.9,1.1C24.3,3.1,25,2.8,26,2.8c1.5,0,2.3,0.9,2.3,2.4v4.6
		h-1.9V5.7c0-0.5,0-0.8-0.2-1c-0.2-0.3-0.5-0.5-1-0.5c-0.5,0-1,0.3-1.2,0.7C24,5.2,24,5.5,24,6.1v3.7h-1.9V5.6c0-0.4,0-0.7-0.1-0.9
		c-0.2-0.3-0.5-0.5-0.9-0.5c-0.5,0-1,0.3-1.2,0.7c-0.1,0.2-0.1,0.6-0.1,1v3.7h-1.9V2.9h1.8V3.9z"/>
	<path class="st0" d="M31.6,1.9h-1.9V0.3h1.9V1.9z M31.6,9.8h-1.9V2.9h1.9V9.8z"/>
	<path class="st0" d="M36.9,4.9C36.8,4.3,36.4,4,35.6,4c-0.7,0-1.1,0.2-1.1,0.6c0,0.5,0.2,0.6,1.7,0.9c1,0.2,1.5,0.4,1.9,0.7
		c0.5,0.3,0.7,0.8,0.7,1.4c0,1.4-1.2,2.3-3.2,2.3c-2,0-3.1-0.8-3.2-2.4h1.8c0.1,0.8,0.5,1.1,1.4,1.1c0.8,0,1.3-0.3,1.3-0.9
		c0-0.3-0.2-0.5-0.5-0.6c-0.2-0.1-0.5-0.2-1-0.3c-1.3-0.3-1.6-0.4-2-0.6C33,6,32.7,5.5,32.7,4.8c0-1.3,1.1-2.1,3-2.1
		c1.1,0,2,0.3,2.5,0.9c0.3,0.3,0.4,0.7,0.5,1.3H36.9z"/>
	<path class="st0" d="M41.9,1.9H40V0.3h1.9V1.9z M41.9,9.8H40V2.9h1.9V9.8z"/>
	<path class="st0" d="M50,6.4c0,2.2-1.4,3.6-3.5,3.6S43,8.5,43,6.4c0-2.2,1.4-3.6,3.6-3.6C48.6,2.8,50,4.2,50,6.4z M44.8,6.4
		c0,1.4,0.6,2.2,1.7,2.2c1,0,1.6-0.8,1.6-2.2c0-1.4-0.6-2.2-1.7-2.2C45.5,4.1,44.8,5,44.8,6.4z M46.7,1.9h-1.3L46.7,0h2L46.7,1.9z"
		/>
	<path class="st0" d="M52.9,3.9c0.6-0.8,1.3-1.1,2.3-1.1c0.9,0,1.6,0.4,2,0.9c0.3,0.4,0.4,0.9,0.4,1.8v4.3h-1.9V5.8
		c0-0.5,0-0.7-0.1-1c-0.2-0.4-0.6-0.6-1.1-0.6c-0.5,0-1,0.3-1.3,0.7C53,5.3,53,5.6,53,6.2v3.5h-1.9V2.9h1.8V3.9z"/>
	<path class="st0" d="M68.8,9.8H62c0-1,0.3-1.9,0.9-2.6c0.3-0.3,0.6-0.6,1.2-1c0.3-0.2,0.5-0.4,0.7-0.5l0.3-0.2l0.3-0.2l0.3-0.2
		c0.9-0.6,1.2-1.1,1.2-1.8c0-0.8-0.5-1.3-1.3-1.3c-1,0-1.5,0.7-1.5,2h-1.8c0-0.1,0-0.2,0-0.2c0-2.1,1.3-3.4,3.3-3.4
		c1.9,0,3.2,1.1,3.2,2.8c0,0.9-0.4,1.7-1.1,2.3c-0.2,0.1-0.4,0.3-1,0.7c-0.4,0.3-0.3,0.2-0.5,0.3l-0.2,0.1l-0.1,0.1
		c-0.9,0.6-1.2,0.9-1.6,1.4c0.7,0,1.1-0.1,1.6-0.1h2.8V9.8z"/>
	<path class="st0" d="M75.9,1.9c0.5,0.8,0.7,1.9,0.7,3.2c0,3-1.3,4.7-3.4,4.7c-2.1,0-3.4-1.8-3.4-4.7c0-2.9,1.3-4.7,3.4-4.7
		C74.4,0.4,75.4,1,75.9,1.9z M71.7,5.3c0,2.1,0.5,3.1,1.6,3.1c1,0,1.5-1,1.5-3.2c0-2.2-0.5-3.2-1.6-3.2C72.2,1.9,71.7,2.9,71.7,5.3z
		"/>
	<path class="st1" d="M82.1,9.8h-1.9V3.7h-0.7h-0.7h-0.6H78V2.4c0.9,0,1.5-0.2,1.9-0.6c0.4-0.3,0.6-0.6,0.7-1.3h1.5V9.8z"/>
	<path class="st1" d="M90.4,2.1c-0.1,0.1,0,0-0.5,0.5c-0.4,0.4-0.9,1.3-1.3,2c-0.7,1.4-1.1,3.1-1.2,5.1h-1.9c0-1.4,0.5-3.2,1.4-4.9
		c0.6-1.2,1.2-2.1,1.8-2.6h-0.2c-0.7,0-0.5,0-0.6,0c-0.2,0-0.3,0-0.5,0h-3.1V0.6h6.3V2.1z"/>
</g>
</svg>
