<?xml version="1.0" encoding="UTF-8" standalone="no"?>
<svg width="3000px" height="730px" viewBox="0 0 3000 730" version="1.1" xmlns="http://www.w3.org/2000/svg" xmlns:xlink="http://www.w3.org/1999/xlink">
    <!-- Generator: Sketch 48.1 (47250) - http://www.bohemiancoding.com/sketch -->
    <title>texto-futuro-novato</title>
    <desc>Created with Sketch.</desc>
    <defs></defs>
    <g id="Page-1" stroke="none" stroke-width="1" fill="none" fill-rule="evenodd">
        <g id="texto-futuro-novato" fill="#FFFFFF" fill-rule="nonzero">
            <g transform="translate(2.000000, 8.000000)" id="Group">
                <g transform="translate(0.000000, 399.193548)">
                    <polygon id="Shape" points="218.445469 57.593876 67.6563789 57.5904245 67.6563789 129.812727 198.897937 129.816179 198.897937 183.395931 67.6563789 183.39248 67.6563789 311.058358 0.174966335 311.058358 0.174966335 0.28302507 218.445038 0.286476595 218.445038 57.593876"></polygon>
                    <path d="M452.135419,311.06181 L393.499288,311.06181 L393.499288,279.381122 C375.348901,305.004814 351.61295,317.118805 319.03215,317.118805 C291.575795,317.118805 268.775872,306.858715 255.271573,288.6942 C245.497592,275.174576 241.309605,257.940679 241.309605,228.58934 L241.309605,86.0176178 L302.740457,86.0184807 L302.740457,210.414902 C302.740457,232.313967 303.208471,237.915792 306.006208,245.823237 C310.652297,259.332507 323.688582,266.795136 342.29707,266.795136 C361.386932,266.795136 376.739581,257.482058 384.651421,240.702899 C389.310869,231.858366 390.70155,220.199545 390.70155,197.841859 L390.70155,86.0176178 L452.13585,86.0176178 L452.13585,311.06181 L452.135419,311.06181 Z" id="Shape"></path>
                    <path d="M620.627569,127.483811 L575.017379,127.483811 L575.017379,233.709246 C575.017379,261.665306 578.741232,265.861498 602.473734,265.861498 C607.133183,265.861498 613.183743,265.861498 621.095582,264.934763 L621.095582,311.988544 C605.729573,313.394178 594.565342,314.320912 584.323347,314.320912 C549.891179,314.320912 532.663029,307.795372 522.424481,291.495113 C514.980655,280.307857 513.586527,270.05467 513.586527,231.376446 L513.586527,127.483379 L475.891624,127.483379 L475.891624,86.0180493 L513.586527,86.0180493 L513.586527,17.9919382 L575.017379,17.9919382 L575.017379,86.0180493 L620.627569,86.0180493 L620.627569,127.483811 Z" id="Shape"></path>
                    <path d="M865.906238,311.06181 L807.273122,311.06181 L807.273122,279.381122 C789.119288,305.004814 765.386785,317.118805 732.802537,317.118805 C705.346182,317.118805 682.549706,306.858715 669.041961,288.6942 C659.271427,275.174576 655.079992,257.940679 655.079992,228.58934 L655.079992,86.0176178 L716.514292,86.0184807 L716.514292,210.414902 C716.514292,232.313967 716.982305,237.915792 719.776595,245.823237 C724.422684,259.332507 737.462417,266.795136 756.070905,266.795136 C775.157319,266.795136 790.513416,257.482058 798.425256,240.702899 C803.081688,231.858366 804.475385,220.199545 804.475385,197.841859 L804.475385,86.0176178 L865.906238,86.0176178 L865.906238,311.06181 Z" id="Shape"></path>
                    <path d="M1065.57816,139.132708 C1054.41393,137.268885 1048.3638,136.80034 1041.3742,136.80034 C1019.04574,136.80034 999.955876,147.522503 990.185342,166.162034 C984.135213,177.338936 981.805489,191.785726 981.805489,216.943894 L981.805489,311.06181 L920.374637,311.06181 L920.374637,86.0184807 L979.021111,86.0184807 L979.021111,127.483811 C995.309788,96.2617448 1019.04574,81.3567644 1051.6162,81.3567644 C1054.41393,81.3567644 1059.52803,81.825309 1065.57816,82.2938535 L1065.57816,139.132708 Z" id="Shape"></path>
                    <path d="M1313.62139,198.769456 C1313.62139,270.055101 1267.54663,317.118805 1197.73593,317.118805 C1127.92522,317.118805 1080.92435,269.59648 1080.92435,199.237569 C1080.92435,127.015266 1127.46712,79.9610539 1199.59764,79.9610539 C1268.01421,79.9614854 1313.62139,127.483811 1313.62139,198.769456 Z M1142.82278,198.769456 C1142.82278,244.431409 1163.29298,271.45038 1197.73549,271.45038 C1231.24198,271.45038 1251.72209,244.431409 1251.72209,199.238 C1251.72209,152.64241 1231.70956,125.623439 1197.26748,125.623439 C1163.29298,125.623439 1142.82278,153.110954 1142.82278,198.769456 Z" id="Shape"></path>
                    <path d="M1736.23318,311.06181 L1668.28073,311.06181 L1575.67312,161.031773 C1574.26908,159.16795 1566.82525,146.585414 1559.84901,134.477895 C1546.34471,112.100363 1544.483,108.84428 1536.57073,91.6069315 C1537.50676,106.043367 1537.97477,112.582282 1538.43244,126.091983 C1538.43244,130.743345 1538.90045,139.13314 1538.90045,150.319965 C1539.36847,163.361121 1539.36847,173.145764 1539.36847,178.734215 L1539.36847,311.06181 L1474.21376,311.06181 L1474.21376,0.286476595 L1543.08844,0.286476595 L1633.37969,147.053959 C1643.61134,163.829666 1650.5975,175.010019 1658.50934,189.911548 C1665.48558,202.02899 1667.81186,206.690706 1673.86199,218.804697 C1672.93932,205.295427 1672.93932,202.497535 1672.47131,184.791642 L1672.00329,176.402278 L1672.00329,167.557745 C1671.07761,146.585846 1671.07761,140.056854 1671.07761,129.81661 L1671.07761,0.286476595 L1736.23318,0.286476595 L1736.23318,311.06181 Z" id="Shape"></path>
                    <path d="M2014.5404,198.769456 C2014.5404,270.055101 1968.4622,317.118805 1898.65149,317.118805 C1828.84079,317.118805 1781.83992,269.59648 1781.83992,199.237569 C1781.83992,127.015266 1828.38613,79.9610539 1900.51321,79.9610539 C1968.93021,79.9614854 2014.5404,127.483811 2014.5404,198.769456 Z M1843.73878,198.769456 C1843.73878,244.431409 1864.20898,271.45038 1898.65149,271.45038 C1932.16143,271.45038 1952.64154,244.431409 1952.64154,199.238 C1952.64154,152.64241 1932.62901,125.623439 1898.18348,125.623439 C1864.20898,125.623439 1843.73878,153.110954 1843.73878,198.769456 Z" id="Shape"></path>
                    <path d="M2167.68982,311.06181 L2098.34712,311.06181 L2020.62415,86.0184807 L2085.32075,86.0184807 L2114.16779,175.947108 C2117.42363,187.12401 2123.94177,209.478244 2128.12975,226.725516 C2129.99147,234.646335 2131.38559,241.161952 2133.71532,254.681576 C2136.97762,237.916224 2138.37175,232.313967 2141.62716,218.804697 C2144.88946,207.627795 2149.06797,192.244347 2153.72742,177.339367 L2182.1198,86.0189122 L2244.01866,86.0184807 L2167.68982,311.06181 Z" id="Shape"></path>
                    <path d="M2405.05664,311.06181 C2401.80425,300.798268 2401.33624,297.55254 2401.33624,289.162745 C2381.79172,308.263917 2357.58776,317.118805 2325.00739,317.118805 C2278.0035,317.118805 2248.22044,291.016645 2248.22044,249.092694 C2248.22044,220.668089 2262.18241,200.174658 2289.18109,189.455946 C2301.27144,184.79121 2314.30773,182.003672 2346.42353,177.797126 C2394.8181,171.74013 2400.86823,168.949141 2400.86823,150.778155 C2400.86823,130.742913 2387.84185,121.426815 2359.4499,121.426815 C2331.99355,121.426815 2320.35785,130.743345 2316.16944,154.971326 L2257.99098,154.971326 C2261.71483,105.584746 2297.09293,79.9614854 2361.31161,79.9614854 C2397.14437,79.9614854 2424.14651,86.9456467 2441.36087,101.392006 C2456.71696,113.974541 2460.90538,125.623439 2460.90538,158.23086 L2459.98271,250.488405 C2459.98271,282.637636 2461.84098,296.146906 2467.89154,311.06181 L2405.05664,311.06181 Z M2400.41056,201.101824 C2389.70356,207.627364 2385.04412,208.554099 2357.11975,212.74727 C2322.68758,218.335721 2311.51301,226.25654 2311.51301,246.760326 C2311.51301,265.393385 2324.54929,277.048754 2345.95552,277.048754 C2363.63789,277.048754 2378.99399,270.523214 2390.17201,258.409224 C2398.08083,249.551315 2400.41056,242.09861 2400.41056,226.725085 L2400.41056,201.101824 Z" id="Shape"></path>
                    <path d="M2620.09458,127.483811 L2574.48784,127.483811 L2574.48784,233.709246 C2574.48784,261.665306 2578.20824,265.861498 2601.94419,265.861498 C2606.60062,265.861498 2612.65075,265.861498 2620.56259,264.934763 L2620.56259,311.988544 C2605.19658,313.394178 2594.03235,314.320912 2583.79036,314.320912 C2549.35819,314.320912 2532.13349,307.795372 2521.89149,291.495113 C2514.44767,280.307857 2513.05354,270.05467 2513.05354,231.376446 L2513.05354,127.483379 L2475.35863,127.483379 L2475.35863,86.0180493 L2513.05354,86.0180493 L2513.05354,17.9919382 L2574.48784,17.9919382 L2574.48784,86.0180493 L2620.09458,86.0180493 L2620.09458,127.483811 Z" id="Shape"></path>
                    <path d="M2872.32924,198.769456 C2872.32924,270.055101 2826.25103,317.118805 2756.44033,317.118805 C2686.62962,317.118805 2639.62875,269.59648 2639.62875,199.237569 C2639.62875,127.015266 2686.17152,79.9610539 2758.30204,79.9610539 C2826.71905,79.9614854 2872.32924,127.483811 2872.32924,198.769456 Z M2701.52762,198.769456 C2701.52762,244.431409 2721.99782,271.45038 2756.44033,271.45038 C2789.94681,271.45038 2810.43037,244.431409 2810.43037,199.238 C2810.43037,152.64241 2790.41483,125.623439 2755.97232,125.623439 C2721.99782,125.623439 2701.52762,153.110954 2701.52762,198.769456 Z" id="Shape"></path>
                    <path d="M2998.93462,311.06181 L2931.45364,311.06181 L2931.45364,244.430978 L2998.93462,244.430978 L2998.93462,311.06181 Z M2998.00893,83.2210195 L2980.78423,216.475349 L2949.60402,216.475349 L2932.85768,84.1443025 L2932.85768,0.286476595 L2998.00893,0.286476595 L2998.00893,83.2210195 Z" id="Shape"></path>
                </g>
                <g transform="translate(1280.241935, 0.000000)">
                    <path d="M0.191706498,97.1480713 L18.8070536,97.1480713 L18.8070536,139.496877 L0.191706498,139.496877 L0.191706498,97.1480713 Z M3.44640895,175.333862 L16.0102928,175.333862 L19.2649952,407.109814 L0.192137299,407.109814 L3.44640895,175.333862 Z" id="Shape"></path>
                    <path d="M344.469436,320.072517 L323.996474,320.072517 L284.92152,220.476587 L135.110432,220.476587 L96.0354777,320.072517 L75.5625162,320.072517 L201.178091,9.64921488 L221.183633,9.64921488 L344.469436,320.072517 Z M222.118472,60.3815028 C221.650622,58.0517281 219.789561,53.8597713 214.666905,38.5067887 C212.805844,33.8472393 212.805844,33.8472393 210.944352,27.796548 C205.364186,42.6884025 201.645079,53.8597713 199.316169,58.9804489 L141.158018,204.187558 L278.873073,204.187558 L222.118472,60.3815028 Z" id="Shape"></path>
                    <path d="M448.231762,112.504502 L399.854089,112.504502 L399.854089,263.293847 C399.854089,281.909204 400.77945,289.821646 404.030706,294.939307 C408.221109,302.39019 416.59459,306.110676 429.16192,306.110676 C434.742087,306.110676 439.854404,305.649548 447.763912,303.784349 L447.763912,319.605355 C439.854835,321.005978 434.742087,321.474002 426.833009,321.474002 C406.360048,321.474002 393.338222,315.423741 386.822355,303.319773 C383.099803,294.939738 382.164534,287.959895 382.164534,256.311418 L382.164534,112.504933 L341.695938,112.504933 L341.695938,97.1485023 L382.164534,97.1485023 L382.164534,27.3358508 L399.854089,27.3358508 L399.854089,97.1480713 L448.231762,97.1480713 L448.231762,112.504502 Z" id="Shape"></path>
                    <path d="M667.415186,243.748908 C658.102558,296.801058 623.21413,326.587784 571.104427,326.587784 C510.63072,326.587784 470.620066,280.047453 470.620066,210.241697 C470.620066,139.961452 512.02393,90.6297875 571.572277,90.6297875 C610.192735,90.6297875 641.826461,110.64275 658.102558,145.547137 C666.479486,163.69447 669.744097,182.316722 669.744097,211.170848 L488.763686,211.170848 C489.689046,273.996761 520.400858,311.231353 572.507546,311.231353 C613.443561,311.231353 641.361627,286.565736 649.735539,243.748908 L667.415186,243.748908 Z M651.5966,195.81097 C650.6609,170.67733 646.941794,157.182651 637.171655,141.82622 C622.746711,119.022354 599.019047,105.989235 572.039696,105.989235 C543.657226,105.989235 517.604097,120.413065 504.114422,144.149531 C495.269644,159.041385 491.550538,171.613377 489.231536,195.81097 L651.5966,195.81097 Z" id="Shape"></path>
                    <path d="M741.869682,145.547137 C757.216972,108.780999 783.741397,90.6297875 822.3485,90.6297875 C850.730971,90.6297875 873.065424,100.400533 887.48046,119.022785 C898.651133,133.446616 901.905405,147.408888 901.905405,177.657173 L901.905405,320.072948 L884.225757,320.072948 L884.225757,181.84913 C884.225757,159.041816 882.364697,147.870447 877.251949,137.167102 C867.939321,117.622162 846.076164,105.989665 818.625948,105.989665 C791.647028,105.989665 766.98711,119.951937 754.423226,142.28821 C745.588357,158.112664 742.337101,174.86627 742.337101,204.18842 L742.337101,320.072948 L724.189604,320.072948 L724.189604,97.1485023 L741.869251,97.1485023 L741.869251,145.547137 L741.869682,145.547137 Z" id="Shape"></path>
                    <path d="M1153.61474,241.419133 C1146.17352,295.4069 1111.74303,326.587784 1058.71055,326.587784 C1021.02536,326.587784 994.04644,312.163953 974.966689,282.377227 C962.409698,262.364264 955.893832,237.230624 955.893832,209.309097 C955.893832,137.635125 996.829846,90.6297875 1059.1784,90.6297875 C1112.21088,90.6297875 1145.70567,118.086738 1151.75368,165.559669 L1133.60963,165.559669 C1126.1684,126.934797 1100.5827,105.989235 1060.56859,105.989235 C1007.53612,105.989235 973.573479,146.011282 973.573479,208.840643 C973.573479,269.343676 1007.53612,311.230923 1056.38164,311.230923 C1101.05055,311.230923 1129.88708,285.635723 1135.93854,241.418702 L1153.61474,241.418702 L1153.61474,241.419133 Z" id="Shape"></path>
                    <path d="M1222.48907,53.3986431 L1204.80943,53.3986431 L1204.80943,9.64921488 L1222.48907,9.64921488 L1222.48907,53.3986431 Z M1222.48907,320.072517 L1204.80943,320.072517 L1204.80943,97.1480713 L1222.48907,97.1480713 L1222.48907,320.072517 Z" id="Shape"></path>
                    <path d="M1484.88056,209.773673 C1484.88056,280.976604 1444.8699,326.587784 1382.06728,326.587784 C1318.32897,326.587784 1278.31831,280.515476 1278.31831,207.443898 C1278.31831,137.167102 1320.19003,90.6297875 1383.4605,90.6297875 C1444.40205,90.6297875 1484.88056,138.09927 1484.88056,209.773673 Z M1295.99451,206.982339 C1295.99451,271.205428 1329.02145,311.230923 1382.06728,311.230923 C1433.70612,311.230923 1467.20436,271.205428 1467.20436,209.773242 C1467.20436,146.940434 1433.70612,105.989235 1381.59943,105.989235 C1330.88251,105.989665 1295.99451,147.408888 1295.99451,206.982339 Z M1379.27052,61.7722137 L1363.45194,61.7722137 L1414.62637,0.340028162 L1436.49297,0.340028162 L1379.27052,61.7722137 Z" id="Shape"></path>
                    <path d="M1559.33505,145.547137 C1574.68579,108.780999 1601.20677,90.6297875 1639.81387,90.6297875 C1668.19634,90.6297875 1690.53079,100.400533 1704.94583,119.022785 C1716.1165,133.446616 1719.37077,147.408888 1719.37077,177.657173 L1719.37077,320.072948 L1701.69113,320.072948 L1701.69113,181.84913 C1701.69113,159.041816 1699.83351,147.870447 1694.72077,137.167102 C1685.40814,117.622162 1663.54153,105.989665 1636.09476,105.989665 C1609.11584,105.989665 1584.45248,119.951937 1571.8886,142.28821 C1563.05373,158.112664 1559.80247,174.86627 1559.80247,204.18842 L1559.80247,320.072948 L1541.65497,320.072948 L1541.65497,97.1485023 L1559.33462,97.1485023 L1559.33462,145.547137 L1559.33505,145.547137 Z" id="Shape"></path>
                </g>
            </g>
        </g>
    </g>
</svg>