<svg id="Capa_2" data-name="Capa 2" xmlns="http://www.w3.org/2000/svg" viewBox="0 0 220 115"><defs><style>.cls-1{fill:#55565a;}.cls-2{fill:#2f7de1;}</style></defs><title>logo-submarca</title><path class="cls-1" d="M1.13,39.48V39.23C1.13,32.34,6,27.64,12.4,27.64c5.46,0,9.53,2.67,10.06,8.26H17.19c-0.38-2.73-1.9-4.19-4.76-4.19-3.59,0-5.87,2.79-5.87,7.49v0.25c0,4.7,2.16,7.43,5.91,7.43,2.83,0,4.79-1.43,5.21-4.35h5C22.14,48.15,18.11,51,12.52,51,5.09,51,1.13,46.47,1.13,39.48Z"/><path class="cls-1" d="M24.4,46.09c0-3.87,3.56-5.33,8.64-5.33H34.9V40.09c0-2-.6-3-2.7-3a2.5,2.5,0,0,0-2.83,2.35H25c0.29-3.94,3.4-5.68,7.46-5.68s7,1.65,7,6.16V50.69H35v-2A5.64,5.64,0,0,1,30,51C26.94,51,24.4,49.58,24.4,46.09ZM34.9,44.88v-1.4H33.13c-2.67,0-4.22.57-4.22,2.35,0,1.21.73,2,2.41,2C33.35,47.83,34.9,46.72,34.9,44.88Z"/><path class="cls-1" d="M43.06,34.09h4.6v2.6a6.17,6.17,0,0,1,5.3-3c4.06,0,7.24,3,7.24,8.51v0.25C60.21,48,57.1,51,53,51a5.8,5.8,0,0,1-5.3-2.89v8.19h-4.6V34.09ZM55.54,42.5V42.25c0-3.37-1.65-5-4-5s-4.06,1.68-4.06,5V42.5c0,3.33,1.59,5,4.1,5S55.54,45.74,55.54,42.5Z"/><path class="cls-1" d="M61.89,46.09c0-3.87,3.56-5.33,8.64-5.33H72.4V40.09c0-2-.6-3-2.7-3a2.5,2.5,0,0,0-2.83,2.35H62.52c0.29-3.94,3.4-5.68,7.46-5.68s7,1.65,7,6.16V50.69H72.46v-2a5.64,5.64,0,0,1-5,2.35C64.43,51,61.89,49.58,61.89,46.09ZM72.4,44.88v-1.4H70.62c-2.67,0-4.22.57-4.22,2.35,0,1.21.73,2,2.41,2C70.84,47.83,72.4,46.72,72.4,44.88Z"/><path class="cls-1" d="M79.54,42.59V42.34a8.25,8.25,0,0,1,8.57-8.64c3.84,0,7.4,1.68,7.81,6.45H91.57a3.06,3.06,0,0,0-3.37-2.83c-2.38,0-4,1.78-4,5v0.25c0,3.33,1.49,5,4.06,5a3.37,3.37,0,0,0,3.56-3.21H96C95.76,48.31,92.9,51,88.08,51S79.54,48,79.54,42.59Z"/><path class="cls-1" d="M98.36,29.32a2.62,2.62,0,1,1,2.6,2.51A2.52,2.52,0,0,1,98.36,29.32Zm0.35,4.76h4.57V50.69H98.71V34.09Z"/><path class="cls-1" d="M107.89,45.77V37.36h-2.13V34.09h2.13V30.5h4.57v3.59H116v3.27h-3.49v8a1.7,1.7,0,0,0,1.84,2A4.28,4.28,0,0,0,116,47v3.56a8.36,8.36,0,0,1-2.79.44C109.76,51,107.89,49.23,107.89,45.77Z"/><path class="cls-1" d="M117.92,46.09c0-3.87,3.56-5.33,8.64-5.33h1.87V40.09c0-2-.6-3-2.7-3a2.5,2.5,0,0,0-2.83,2.35h-4.35c0.29-3.94,3.4-5.68,7.46-5.68s7,1.65,7,6.16V50.69h-4.48v-2a5.64,5.64,0,0,1-5,2.35C120.46,51,117.92,49.58,117.92,46.09Zm10.51-1.21v-1.4h-1.78c-2.67,0-4.22.57-4.22,2.35,0,1.21.73,2,2.41,2C126.87,47.83,128.43,46.72,128.43,44.88Z"/><path class="cls-1" d="M135.57,42.59V42.34a8.25,8.25,0,0,1,8.57-8.64c3.84,0,7.4,1.68,7.81,6.45H147.6a3.06,3.06,0,0,0-3.37-2.83c-2.38,0-4,1.78-4,5v0.25c0,3.33,1.49,5,4.06,5a3.37,3.37,0,0,0,3.56-3.21H152c-0.25,3.94-3.11,6.67-7.94,6.67S135.57,48,135.57,42.59Z"/><path class="cls-1" d="M154.39,29.32a2.62,2.62,0,1,1,2.6,2.51A2.52,2.52,0,0,1,154.39,29.32Zm0.35,4.76h4.57V50.69h-4.57V34.09Z"/><path class="cls-1" d="M162.2,42.56V42.31c0-5.21,3.78-8.6,8.76-8.6s8.73,3.33,8.73,8.51v0.25c0,5.24-3.78,8.57-8.76,8.57S162.2,47.74,162.2,42.56ZM175,42.5V42.28c0-3.17-1.49-5.08-4.06-5.08s-4.06,1.84-4.06,5v0.25c0,3.17,1.46,5.08,4.06,5.08S175,45.64,175,42.5ZM170.9,26.78h4.83l-3.3,5h-3.33Z"/><path class="cls-1" d="M182.46,34.09h4.6v2.64a5.74,5.74,0,0,1,5.4-3c3.27,0,5.59,2,5.59,6.41V50.69h-4.6V40.79c0-2.25-.89-3.33-2.92-3.33a3.29,3.29,0,0,0-3.46,3.65v9.59h-4.6V34.09Z"/><path class="cls-1" d="M7.16,80.72L0.65,65.83H3.48L8.56,77.74l4.6-11.91h2.7L6.68,88.22H4Z"/><path class="cls-1" d="M26.33,59.74h6c7.81,0,11.49,4.83,11.49,11.14v0.29c0,6.29-3.62,11.27-11.56,11.27H26.33V59.74Zm5.87,20.45c5.84,0,8.76-3.49,8.76-9V70.88C41,65.64,38.43,62,32.17,62H29.09V80.18h3.11Z"/><path class="cls-1" d="M46.21,74.31V74.06c0-5,3.21-8.51,7.78-8.51,3.84,0,7.46,2.32,7.46,8.25v0.86H48.94c0.13,3.78,1.94,5.87,5.33,5.87,2.57,0,4.06-1,4.41-2.89h2.64C60.75,81,58,82.72,54.24,82.72,49.54,82.72,46.21,79.42,46.21,74.31Zm12.54-1.78c-0.25-3.43-2-4.79-4.76-4.79s-4.51,1.84-5,4.79h9.72Z"/><path class="cls-1" d="M63.47,77.33H66c0.19,2,1.24,3.21,3.91,3.21,2.51,0,3.62-.86,3.62-2.64s-1.3-2.32-3.87-2.79c-4.32-.79-5.78-2-5.78-4.89,0-3.08,3-4.67,5.62-4.67,3,0,5.56,1.21,6,4.79H73c-0.38-1.81-1.4-2.6-3.49-2.6-1.9,0-3.14,1-3.14,2.38s0.83,2.1,3.87,2.64c3.43,0.64,5.84,1.4,5.84,4.92,0,3-2.06,5-6.1,5S63.63,80.72,63.47,77.33Z"/><path class="cls-1" d="M77.92,77.83c0-3.84,4.06-5.14,8.32-5.14h2.38V71.48c0-2.64-1-3.75-3.56-3.75-2.29,0-3.56,1-3.81,3H78.62C79,66.94,82,65.55,85.19,65.55s6.06,1.3,6.06,5.94v11H88.62v-2.1a6,6,0,0,1-5.18,2.38C80.36,82.72,77.92,81.23,77.92,77.83Zm10.7-1.21V74.56H86.33c-3.33,0-5.78.83-5.78,3.27,0,1.71.83,2.79,3.14,2.79C86.49,80.63,88.62,79.2,88.62,76.63Z"/><path class="cls-1" d="M95.63,65.83h2.64v3a5.8,5.8,0,0,1,5.46-3.27V68c-3.33.16-5.46,1.21-5.46,5.3v9.11H95.63V65.83Z"/><path class="cls-1" d="M106.78,65.83h2.64v3a5.8,5.8,0,0,1,5.46-3.27V68c-3.33.16-5.46,1.21-5.46,5.3v9.11h-2.64V65.83Z"/><path class="cls-1" d="M116.2,74.28V74c0-5,3.46-8.48,8.16-8.48S132.52,69,132.52,74v0.25c0,5-3.46,8.48-8.19,8.48S116.2,79.14,116.2,74.28Zm13.59,0V74.06c0-3.84-2.13-6.32-5.43-6.32s-5.43,2.48-5.43,6.29v0.25c0,3.78,2.06,6.25,5.43,6.25S129.79,78,129.79,74.28Z"/><path class="cls-1" d="M135.89,57.9h2.67V82.44h-2.67V57.9Z"/><path class="cls-1" d="M143.22,57.9h2.67V82.44h-2.67V57.9Z"/><path class="cls-1" d="M149.25,74.28V74c0-5,3.46-8.48,8.16-8.48S165.57,69,165.57,74v0.25c0,5-3.46,8.48-8.19,8.48S149.25,79.14,149.25,74.28Zm13.59,0V74.06c0-3.84-2.13-6.32-5.43-6.32S152,70.21,152,74v0.25c0,3.78,2.06,6.25,5.43,6.25S162.84,78,162.84,74.28Z"/><path class="cls-2" d="M176.08,73.58V59.74h5.17V73.26c0,3.78,1.11,5.43,4.22,5.43s4.38-1.46,4.38-5.62V59.74H195V73.39c0,6.19-3.46,9.4-9.59,9.4C179.48,82.79,176.08,79.61,176.08,73.58Z"/><path class="cls-2" d="M197.76,71.23V71c0-6.89,4.83-11.59,11.27-11.59,5.46,0,9.53,2.67,10.06,8.26h-5.27c-0.38-2.73-1.9-4.19-4.76-4.19-3.59,0-5.87,2.79-5.87,7.49V71.2c0,4.7,2.16,7.43,5.91,7.43,2.83,0,4.79-1.43,5.21-4.35h5c-0.57,5.62-4.6,8.51-10.19,8.51C201.73,82.79,197.76,78.22,197.76,71.23Z"/></svg>